<?xml version="1.0" standalone="no"?>
<!DOCTYPE svg PUBLIC "-//W3C//DTD SVG 20010904//EN"
 "http://www.w3.org/TR/2001/REC-SVG-20010904/DTD/svg10.dtd">
<svg version="1.0" xmlns="http://www.w3.org/2000/svg"
 width="940.000000pt" height="520.000000pt" viewBox="0 0 940.000000 520.000000"
 preserveAspectRatio="xMidYMid meet">

<g transform="translate(0.000000,520.000000) scale(0.100000,-0.100000)"
fill="#000000" stroke="none">
<path d="M0 5190 c0 -7 1573 -10 4700 -10 3127 0 4700 3 4700 10 0 7 -1573 10
-4700 10 -3127 0 -4700 -3 -4700 -10z"/>
<path d="M20 2575 l0 -2575 4680 0 4680 0 0 2575 0 2575 -4680 0 -4680 0 0
-2575z m9330 5 l0 -2550 -4650 0 -4650 0 0 2550 0 2550 4650 0 4650 0 0 -2550z"/>
<path d="M1497 4213 c-11 -10 -8 -203 3 -203 5 0 10 35 12 78 l3 77 22 -46
c12 -26 26 -50 32 -53 5 -4 21 13 35 36 l26 43 0 -52 c0 -61 7 -83 26 -83 11
0 14 18 14 78 0 95 -7 124 -29 120 -9 -2 -27 -24 -42 -50 l-25 -48 -27 55
c-26 53 -36 63 -50 48z"/>
<path d="M1915 4211 c-6 -11 9 -23 19 -14 9 9 7 23 -3 23 -6 0 -12 -4 -16 -9z"/>
<path d="M2996 4159 c-13 -66 -3 -184 15 -173 5 3 9 38 9 77 l1 72 28 -54 28
-53 21 27 c12 14 25 36 29 48 6 16 9 2 13 -48 4 -53 9 -70 20 -70 11 0 16 15
18 62 3 66 -12 143 -28 143 -5 0 -23 -23 -39 -51 l-29 -52 -26 52 c-30 58 -51
65 -60 20z"/>
<path d="M3230 4175 c0 -9 6 -12 15 -9 8 4 15 10 15 15 0 5 -7 9 -15 9 -8 0
-15 -7 -15 -15z"/>
<path d="M4511 4103 c0 -49 4 -97 9 -108 l8 -20 7 20 c13 40 23 50 56 61 62
20 77 104 23 124 -14 6 -43 10 -65 10 l-39 0 1 -87z m99 42 c17 -20 6 -43 -25
-51 -34 -8 -49 7 -41 40 7 30 45 36 66 11z"/>
<path d="M5116 4159 c-13 -65 2 -210 17 -169 3 8 8 36 12 62 4 35 11 49 26 53
28 9 30 5 36 -64 8 -85 23 -76 23 14 l0 75 -33 0 c-37 0 -57 15 -57 42 0 30
-17 20 -24 -13z"/>
<path d="M6020 4182 c0 -4 5 -13 11 -19 15 -15 14 -144 -1 -153 -21 -13 -1
-30 36 -30 35 0 42 8 23 27 -14 14 -14 142 0 156 20 20 12 27 -29 27 -22 0
-40 -4 -40 -8z"/>
<path d="M7676 4139 c-8 -67 3 -175 15 -144 10 26 10 154 0 180 -6 15 -10 6
-15 -36z"/>
<path d="M8187 4170 c-9 -34 -8 -150 2 -175 13 -30 24 100 13 155 -7 40 -9 42
-15 20z"/>
<path d="M4845 4159 c-9 -28 4 -150 17 -166 12 -15 54 -17 62 -4 3 4 -5 13
-18 19 -39 18 -43 102 -5 102 11 0 19 7 19 15 0 8 -9 15 -19 15 -11 0 -23 9
-26 20 -8 26 -22 25 -30 -1z"/>
<path d="M7393 4163 c-4 -10 -11 -21 -16 -25 -7 -4 -6 -16 1 -35 6 -15 14 -46
18 -68 8 -44 18 -55 52 -55 30 0 28 14 -4 28 -22 11 -25 17 -22 55 2 35 7 43
26 45 27 4 30 32 3 32 -11 0 -23 9 -26 20 -8 25 -23 26 -32 3z"/>
<path d="M1737 4163 c-15 -14 -5 -23 26 -23 51 0 52 -12 5 -34 -34 -17 -44
-27 -46 -50 -5 -37 10 -46 76 -46 l52 0 0 39 c0 73 -10 99 -43 110 -34 13 -61
14 -70 4z m76 -90 c11 -11 -14 -33 -38 -33 -29 0 -38 10 -24 27 12 14 51 18
62 6z"/>
<path d="M1890 4160 c-13 -9 -13 -12 3 -21 13 -8 17 -24 17 -73 0 -57 -3 -65
-25 -80 -30 -20 -25 -36 11 -36 33 0 44 32 44 130 0 62 -3 79 -16 84 -19 7
-16 8 -34 -4z"/>
<path d="M2023 4160 c-31 -12 -46 -47 -40 -87 8 -47 24 -63 62 -63 36 0 75 37
75 71 0 31 -21 66 -47 78 -13 6 -25 11 -26 10 -1 0 -12 -4 -24 -9z m38 -30
c12 -7 19 -21 19 -38 0 -38 -13 -54 -41 -50 -28 4 -37 44 -19 78 12 23 15 24
41 10z"/>
<path d="M2170 4085 c0 -43 4 -75 10 -75 6 0 10 11 10 24 0 58 13 88 41 98 43
15 35 28 -16 28 l-45 0 0 -75z"/>
<path d="M3237 4102 c-9 -51 2 -130 14 -110 11 16 10 106 0 133 -6 15 -9 11
-14 -23z"/>
<path d="M3300 4066 c0 -41 4 -77 9 -80 11 -7 21 17 21 53 0 31 25 71 45 71
15 0 35 -58 35 -102 0 -16 5 -28 10 -28 6 0 10 30 10 70 0 66 -1 71 -26 80
-14 6 -43 10 -65 10 l-39 0 0 -74z"/>
<path d="M3513 4128 c-27 -13 -47 -60 -38 -90 19 -62 77 -77 122 -32 21 21 24
32 19 62 -9 59 -52 85 -103 60z m63 -43 c23 -35 6 -75 -31 -75 -40 0 -52 49
-22 88 15 19 35 14 53 -13z"/>
<path d="M3660 4066 c0 -74 12 -106 24 -63 3 12 6 37 6 55 0 26 6 35 28 44 15
7 29 14 32 16 10 7 -27 22 -57 22 l-33 0 0 -74z"/>
<path d="M4697 4134 c-12 -12 4 -24 34 -24 41 0 36 -14 -11 -33 -36 -14 -40
-19 -40 -50 0 -41 11 -47 82 -47 l50 0 -4 54 c-6 73 -29 106 -72 106 -18 0
-36 -3 -39 -6z m61 -96 c4 -20 -35 -35 -51 -19 -7 7 -6 15 3 26 16 19 44 16
48 -7z"/>
<path d="M4980 4122 c-32 -26 -39 -93 -11 -121 21 -21 54 -27 85 -15 28 11 17
23 -21 26 -37 3 -38 4 -41 44 -3 41 -3 41 37 48 45 7 53 20 19 30 -35 9 -44 7
-68 -12z"/>
<path d="M6151 4078 c1 -112 20 -126 34 -26 4 35 11 49 26 53 28 9 30 5 36
-64 8 -85 23 -76 23 13 l0 73 -37 7 c-83 13 -83 13 -82 -56z"/>
<path d="M6343 4118 c-11 -13 -24 -33 -27 -44 -15 -50 44 -104 99 -90 34 9 32
26 -4 26 -36 0 -53 20 -49 57 2 23 9 29 37 33 41 6 51 25 19 34 -39 10 -54 7
-75 -16z"/>
<path d="M6470 4076 c0 -35 3 -71 6 -80 10 -27 24 -7 24 34 0 37 13 60 47 78
26 15 5 32 -38 32 l-39 0 0 -64z"/>
<path d="M6625 4128 c-49 -28 -56 -64 -24 -117 19 -32 23 -33 65 -28 73 8 74
23 3 35 -60 10 -60 35 1 42 36 4 46 9 48 26 6 44 -48 68 -93 42z m51 -29 c9
-15 -13 -28 -36 -22 -23 6 -15 33 10 33 11 0 22 -5 26 -11z"/>
<path d="M6770 4061 c0 -89 15 -109 25 -33 8 59 17 77 41 77 16 0 19 -9 22
-50 1 -27 5 -57 8 -65 8 -22 24 7 24 45 0 53 49 99 64 60 3 -8 8 -37 12 -65 4
-27 10 -50 15 -50 14 0 11 126 -3 138 -7 5 -57 13 -110 17 l-98 7 0 -81z"/>
<path d="M7061 4123 c-12 -10 -24 -35 -27 -55 -5 -31 -2 -41 20 -63 22 -21 34
-26 69 -23 55 4 54 22 0 26 -30 2 -46 9 -53 22 -11 21 0 26 65 32 37 4 44 29
16 57 -26 26 -62 27 -90 4z m68 -27 c19 -22 -29 -35 -59 -16 -13 9 -13 11 0
20 21 14 46 12 59 -4z"/>
<path d="M7210 4061 c0 -47 4 -81 10 -81 6 0 10 11 10 24 0 47 13 87 32 97 28
15 48 -6 48 -51 0 -46 9 -72 21 -64 14 8 11 108 -4 128 -9 12 -31 20 -65 24
l-52 5 0 -82z"/>
<path d="M7517 4134 c-12 -12 4 -24 33 -24 39 0 46 -16 10 -23 -36 -8 -70 -40
-70 -67 0 -20 49 -40 103 -40 27 0 27 0 27 70 0 66 -1 71 -26 80 -29 11 -68
13 -77 4z m68 -84 c9 -15 -14 -40 -36 -40 -22 0 -27 35 -6 43 21 9 36 8 42 -3z"/>
<path d="M7837 4134 c-13 -14 52 -154 72 -154 8 0 52 92 66 138 13 44 -17 22
-38 -28 -11 -27 -23 -50 -27 -50 -3 0 -15 23 -28 50 -22 48 -31 57 -45 44z"/>
<path d="M8027 4134 c-12 -12 4 -24 34 -24 40 0 37 -16 -6 -31 -24 -9 -38 -21
-42 -38 -10 -40 8 -56 71 -59 l56 -3 0 45 c0 49 -15 96 -33 108 -15 9 -71 10
-80 2z m66 -80 c11 -12 -13 -44 -33 -44 -20 0 -28 29 -13 43 8 9 38 9 46 1z"/>
<path d="M8265 4129 c-3 -9 -5 -45 -3 -80 l3 -64 63 -3 63 -3 -3 76 c-2 41 -7
75 -13 76 -5 0 -15 -23 -20 -51 -17 -86 -65 -85 -65 2 0 41 -16 71 -25 47z"/>
<path d="M8463 4132 c-15 -10 -33 -57 -33 -88 0 -48 60 -79 114 -58 28 11 17
24 -18 24 -40 0 -76 28 -54 41 7 5 29 9 49 9 41 0 56 19 39 50 -15 28 -68 40
-97 22z m66 -36 c19 -22 -29 -35 -59 -16 -13 9 -13 11 0 20 21 14 46 12 59 -4z"/>
<path d="M1397 3854 c-8 -14 41 -155 64 -184 l19 -25 20 23 c21 25 61 125 63
159 4 46 -19 22 -48 -51 -16 -42 -33 -76 -37 -76 -3 0 -16 29 -28 64 -22 69
-44 104 -53 90z"/>
<path d="M2022 3848 c6 -18 28 -21 28 -4 0 9 -7 16 -16 16 -9 0 -14 -5 -12
-12z"/>
<path d="M2890 3851 c0 -23 63 -181 76 -192 21 -17 38 2 68 75 29 73 35 109
21 116 -5 3 -23 -28 -39 -68 -16 -39 -32 -72 -35 -72 -4 0 -22 34 -40 75 -29
66 -51 94 -51 66z"/>
<path d="M3530 3845 c0 -8 5 -15 10 -15 6 0 10 7 10 15 0 8 -4 15 -10 15 -5 0
-10 -7 -10 -15z"/>
<path d="M4410 3852 c0 -23 62 -181 76 -193 21 -17 38 2 68 75 29 73 35 109
21 116 -5 3 -23 -28 -39 -68 -16 -39 -32 -72 -36 -72 -4 0 -19 29 -34 65 -26
60 -56 102 -56 77z"/>
<path d="M5050 3845 c0 -8 5 -15 10 -15 6 0 10 7 10 15 0 8 -4 15 -10 15 -5 0
-10 -7 -10 -15z"/>
<path d="M6406 3838 c-16 -23 -23 -139 -10 -172 12 -30 24 -5 24 49 0 50 2 55
25 61 31 8 32 22 3 33 l-22 8 22 14 c29 18 28 29 -2 29 -14 0 -32 -10 -40 -22z"/>
<path d="M7230 3844 c0 -17 22 -14 28 4 2 7 -3 12 -12 12 -9 0 -16 -7 -16 -16z"/>
<path d="M7804 3814 c-7 -27 2 -139 12 -155 7 -12 64 -12 64 0 0 5 -8 11 -19
14 -19 5 -32 46 -23 79 2 11 16 24 31 30 l26 10 -25 11 c-14 6 -29 17 -33 24
-13 20 -26 15 -33 -13z"/>
<path d="M1613 3795 c-27 -19 -40 -77 -25 -110 12 -26 78 -50 106 -39 28 11
12 29 -30 32 -54 5 -78 42 -26 42 50 0 72 11 72 35 0 42 -60 67 -97 40z m48
-26 c24 -13 16 -29 -16 -29 -29 0 -43 19 -24 31 18 11 17 11 40 -2z"/>
<path d="M1903 3803 c-13 -2 -23 -7 -23 -11 0 -4 -3 -17 -6 -29 -5 -17 2 -27
36 -48 44 -28 42 -46 -4 -38 -32 7 -43 -15 -14 -26 29 -11 73 -4 89 15 18 22
6 48 -35 69 -44 23 -45 40 -2 40 36 0 45 20 14 29 -13 3 -25 5 -28 5 -3 -1
-15 -4 -27 -6z"/>
<path d="M2121 3791 c-26 -26 -29 -101 -5 -125 23 -23 91 -21 104 3 15 28 12
106 -3 120 -29 23 -74 24 -96 2z m75 -45 c9 -39 1 -61 -25 -64 -27 -4 -41 12
-41 49 0 32 7 39 36 39 17 0 25 -7 30 -24z"/>
<path d="M3123 3800 c-12 -5 -29 -23 -38 -40 -15 -29 -15 -34 2 -68 15 -30 24
-38 52 -40 43 -4 84 6 76 18 -3 6 -19 10 -35 10 -71 0 -83 34 -15 44 52 8 60
17 44 48 -20 39 -42 46 -86 28z m41 -26 c20 -8 9 -34 -14 -34 -22 0 -34 15
-25 30 7 11 17 12 39 4z"/>
<path d="M4643 3800 c-12 -5 -29 -23 -38 -40 -15 -29 -15 -34 2 -68 15 -30 24
-38 52 -40 43 -4 84 6 76 18 -3 6 -19 10 -35 10 -71 0 -83 34 -15 44 52 8 60
17 44 48 -20 39 -42 46 -86 28z m41 -26 c20 -8 9 -34 -14 -34 -22 0 -34 15
-25 30 7 11 17 12 39 4z"/>
<path d="M5153 3798 c-34 -16 -47 -68 -29 -112 13 -32 19 -36 50 -36 47 0 76
29 76 74 0 58 -50 96 -97 74z m41 -31 c12 -9 17 -23 14 -47 -2 -29 -7 -36 -29
-38 -33 -4 -43 19 -28 65 12 37 17 39 43 20z"/>
<path d="M6253 3800 c-48 -19 -58 -92 -18 -130 31 -29 82 -31 101 -5 23 31 17
92 -11 120 -26 27 -37 29 -72 15z m48 -30 c31 -17 23 -90 -10 -90 -25 0 -41
20 -41 50 0 14 5 31 12 38 15 15 15 15 39 2z"/>
<path d="M6930 3803 c-28 -10 -40 -36 -40 -85 0 -55 15 -68 80 -68 54 0 49 23
-6 30 -25 3 -40 11 -42 21 -2 13 9 18 48 23 44 6 50 10 50 30 0 13 -6 28 -13
34 -16 14 -58 22 -77 15z m41 -34 c26 -14 15 -29 -22 -29 -39 0 -40 29 -1 39
2 1 12 -4 23 -10z"/>
<path d="M7050 3789 c0 -30 50 -131 68 -137 13 -4 72 113 72 144 0 28 -27 -3
-46 -53 l-18 -45 -22 44 c-12 24 -30 50 -38 57 -14 12 -16 10 -16 -10z"/>
<path d="M7343 3800 c-28 -11 -43 -40 -43 -84 0 -49 22 -68 79 -64 54 4 62 22
11 26 -34 4 -60 17 -60 32 0 4 23 10 50 14 44 6 50 10 50 30 0 38 -46 62 -87
46z m38 -31 c24 -13 16 -29 -16 -29 -29 0 -43 19 -24 31 18 11 17 11 40 -2z"/>
<path d="M7460 3799 c0 -20 32 -124 42 -136 17 -21 24 -15 43 34 l19 48 16
-38 c28 -64 37 -66 60 -15 22 51 30 105 15 110 -5 2 -14 -16 -19 -40 -11 -48
-25 -50 -40 -4 -20 58 -32 59 -54 0 -16 -43 -22 -49 -27 -33 -20 58 -28 74
-41 79 -8 3 -14 1 -14 -5z"/>
<path d="M7943 3804 c-25 -11 -12 -24 22 -24 45 0 45 -15 1 -30 -36 -11 -46
-26 -46 -65 0 -28 16 -35 82 -35 l51 0 -6 61 c-3 34 -11 68 -19 75 -15 15 -67
26 -85 18z m55 -101 c-4 -22 -58 -31 -58 -10 0 20 10 27 37 27 18 0 24 -5 21
-17z"/>
<path d="M8133 3803 c-48 -9 -70 -85 -38 -130 9 -13 28 -23 48 -25 40 -4 38
-21 -3 -28 -41 -7 -34 -25 8 -24 54 2 65 22 70 124 l4 90 -33 -1 c-19 -1 -44
-4 -56 -6z m42 -43 c24 -27 10 -73 -23 -78 -28 -4 -46 36 -32 73 12 30 31 32
55 5z"/>
<path d="M8290 3803 c-41 -16 -41 -66 0 -83 16 -7 35 -18 41 -26 13 -15 6 -18
-43 -14 -19 1 -28 -3 -28 -14 0 -30 94 -25 111 5 13 25 7 34 -42 65 -44 27
-43 49 1 39 25 -5 50 8 38 21 -8 8 -63 13 -78 7z"/>
<path d="M1750 3741 c0 -33 3 -66 6 -75 10 -27 24 -7 24 34 0 35 4 43 40 65
22 14 40 27 40 30 0 3 -25 5 -55 5 l-55 0 0 -59z"/>
<path d="M2027 3786 c-10 -25 -8 -108 2 -125 14 -21 25 67 14 109 -7 28 -11
31 -16 16z"/>
<path d="M2270 3741 c0 -33 3 -66 6 -75 11 -28 24 -6 24 38 0 47 13 66 46 66
24 0 34 -23 34 -82 0 -21 4 -38 10 -38 28 0 22 133 -6 144 -9 3 -38 6 -65 6
l-49 0 0 -59z"/>
<path d="M3260 3725 c0 -41 4 -75 9 -75 13 0 21 26 21 70 0 32 4 39 30 50 43
18 37 30 -15 30 l-45 0 0 -75z"/>
<path d="M3381 3786 c-20 -24 -9 -49 28 -68 66 -33 65 -42 -6 -38 -18 1 -33
-3 -33 -8 0 -23 78 -30 98 -10 25 25 14 58 -23 74 -41 17 -38 34 6 34 46 0 30
24 -18 28 -26 2 -44 -2 -52 -12z"/>
<path d="M3537 3793 c-11 -10 -8 -133 3 -133 6 0 10 30 10 70 0 70 -1 76 -13
63z"/>
<path d="M3610 3773 c-39 -50 -6 -123 55 -123 38 0 75 35 75 72 0 71 -87 105
-130 51z m80 -13 c25 -25 25 -41 2 -70 -16 -19 -22 -21 -40 -11 -28 15 -33 60
-10 89 14 17 25 15 48 -8z"/>
<path d="M3780 3731 c0 -39 4 -72 9 -75 12 -8 21 18 21 59 0 37 23 67 45 59
17 -7 22 -19 30 -78 10 -64 25 -58 25 10 0 82 -10 94 -75 94 l-55 0 0 -69z"/>
<path d="M4780 3725 c0 -41 4 -75 9 -75 13 0 21 26 21 70 0 32 4 39 30 50 43
18 37 30 -15 30 l-45 0 0 -75z"/>
<path d="M4902 3788 c-22 -22 -13 -48 23 -69 40 -24 38 -39 -6 -39 -35 0 -41
-29 -6 -31 62 -3 87 10 87 47 0 18 -9 28 -36 39 -41 17 -37 35 7 35 46 0 31
24 -17 28 -22 2 -45 -3 -52 -10z"/>
<path d="M5300 3731 c0 -38 4 -72 9 -75 12 -8 21 18 21 57 0 39 9 54 35 59 18
3 21 -4 25 -54 9 -101 33 -85 28 18 l-3 59 -57 3 -58 3 0 -70z"/>
<path d="M6590 3723 c0 -81 7 -123 20 -123 4 0 10 8 13 19 3 12 17 21 40 25
42 8 56 23 64 70 4 24 0 44 -11 61 -14 22 -24 25 -71 25 l-55 0 0 -77z m89 43
c7 -8 11 -30 9 -48 -3 -29 -6 -33 -33 -33 -27 0 -30 4 -33 35 -3 24 2 38 14
47 23 17 29 16 43 -1z"/>
<path d="M6770 3725 c0 -43 4 -75 10 -75 6 0 10 13 10 29 0 47 16 77 49 91 45
18 38 30 -19 30 l-50 0 0 -75z"/>
<path d="M7235 3763 c-8 -49 3 -122 16 -101 11 17 11 109 0 127 -6 10 -11 2
-16 -26z"/>
<path d="M5050 3725 c0 -37 4 -65 10 -65 6 0 10 28 10 65 0 37 -4 65 -10 65
-6 0 -10 -28 -10 -65z"/>
<path d="M4846 3498 c-3 -13 -7 -32 -8 -42 -2 -10 -15 -28 -29 -38 -23 -17
-51 -20 -255 -27 -245 -8 -286 -16 -318 -62 -17 -25 -22 -94 -7 -103 12 -8 21
18 21 58 0 64 18 70 238 78 108 4 227 12 265 19 50 8 94 8 170 0 56 -7 191
-15 300 -20 225 -10 247 -17 247 -75 0 -40 8 -66 21 -66 25 0 -4 109 -37 141
-21 20 -38 23 -191 30 -93 4 -216 8 -274 8 -119 1 -119 0 -119 84 0 40 -17 51
-24 15z"/>
<path d="M1887 3461 c-17 -50 -17 -50 -70 -55 -28 -4 -143 -10 -255 -15 -162
-8 -210 -13 -240 -28 -36 -17 -37 -20 -39 -73 -2 -55 -2 -55 8 -16 12 51 32
72 73 80 17 3 128 10 246 16 118 5 232 14 252 20 28 8 44 8 59 -1 13 -7 135
-17 293 -25 300 -16 293 -14 313 -87 l11 -42 1 42 c1 53 -29 91 -84 103 -22 5
-114 10 -205 10 -202 1 -295 11 -317 32 -9 9 -19 33 -22 53 l-6 36 -18 -50z"/>
<path d="M3398 3467 c-29 -61 -40 -64 -293 -75 -254 -11 -297 -20 -316 -68 -5
-16 -8 -44 -7 -63 l4 -36 8 30 c19 72 28 85 66 95 20 5 135 14 256 19 120 6
234 15 253 22 27 9 38 9 54 -1 14 -8 107 -17 278 -25 258 -13 303 -21 320 -55
4 -8 12 -26 18 -40 10 -22 11 -20 5 15 -13 92 -49 105 -292 106 -183 0 -297
10 -313 26 -7 7 -15 29 -18 49 l-6 37 -17 -36z"/>
<path d="M7301 3488 c-2 -33 -23 -66 -49 -78 -16 -7 -116 -15 -257 -19 -190
-7 -236 -11 -267 -26 -38 -19 -58 -54 -58 -101 0 -38 17 -28 24 14 7 44 28 67
71 76 17 3 127 11 245 16 118 5 232 14 252 20 28 8 44 8 60 -1 15 -8 103 -15
238 -20 234 -9 304 -15 331 -30 10 -5 25 -31 33 -57 l15 -47 0 40 c1 44 -17
78 -52 97 -14 7 -112 14 -271 19 -224 6 -251 9 -275 27 -15 11 -29 33 -32 53
-4 19 -7 26 -8 17z"/>
<path d="M1383 2970 c-56 -29 -99 -88 -126 -175 -19 -60 -22 -92 -21 -225 0
-137 3 -162 23 -214 42 -106 130 -166 246 -166 61 0 138 36 174 81 98 125 118
430 38 588 -27 55 -40 69 -86 95 -74 41 -185 48 -248 16z m187 -99 c49 -33 72
-101 78 -225 9 -210 -10 -281 -87 -333 -53 -36 -106 -31 -146 12 -51 54 -69
120 -70 255 0 136 15 203 57 255 53 63 110 76 168 36z"/>
<path d="M1969 2962 c-55 -36 -109 -131 -109 -194 l0 -38 45 0 c40 0 47 3 56
28 41 106 72 134 148 134 77 0 131 -45 133 -112 2 -65 -34 -98 -127 -115 l-60
-11 -3 -38 c-4 -47 7 -56 67 -56 63 0 127 -33 140 -72 20 -57 14 -104 -19
-141 -41 -47 -78 -60 -150 -55 -73 5 -101 28 -128 103 l-18 50 -49 0 -50 0 1
-40 c1 -65 12 -94 55 -140 55 -59 114 -79 223 -73 136 7 217 60 250 160 29 89
17 150 -45 228 l-40 51 25 30 c30 36 40 80 34 157 -8 116 -74 164 -233 170
-97 3 -101 3 -146 -26z"/>
<path d="M2953 2979 c-52 -15 -120 -100 -146 -183 -30 -95 -32 -328 -4 -419
37 -116 111 -178 223 -185 174 -11 262 91 284 328 28 304 -68 472 -269 469
-31 0 -70 -5 -88 -10z m179 -116 c55 -52 86 -218 69 -360 -18 -145 -68 -213
-159 -213 -53 0 -92 33 -122 102 -20 46 -23 69 -23 183 0 157 17 225 65 272
62 59 119 65 170 16z"/>
<path d="M3572 2979 c-52 -15 -118 -88 -136 -150 -29 -96 -21 -119 44 -119 33
0 45 13 55 60 15 74 70 120 143 120 84 0 142 -54 142 -133 0 -67 -30 -102
-157 -182 -149 -94 -178 -118 -209 -170 -28 -48 -54 -133 -54 -177 l0 -28 271
0 270 0 -3 53 -3 52 -197 5 c-109 3 -200 9 -203 12 -19 19 61 90 185 163 116
69 167 113 195 168 61 122 6 281 -112 321 -51 18 -177 20 -231 5z"/>
<path d="M4509 2980 c-127 -38 -200 -262 -169 -514 13 -106 38 -162 95 -215
63 -58 154 -76 248 -50 80 22 149 118 176 247 24 116 9 327 -29 402 -26 50
-101 116 -146 129 -45 12 -137 13 -175 1z m173 -117 c11 -10 30 -36 42 -58 19
-37 21 -55 21 -215 0 -163 -2 -178 -23 -218 -43 -81 -131 -107 -192 -56 -17
15 -41 45 -53 68 -20 37 -22 55 -22 196 1 93 6 172 13 197 31 103 145 149 214
86z"/>
<path d="M5220 2950 c-29 -57 -56 -78 -119 -91 -71 -15 -81 -24 -81 -65 l0
-34 95 0 95 0 0 -280 0 -280 50 0 50 0 0 395 0 395 -35 0 c-30 0 -37 -5 -55
-40z"/>
<path d="M6043 2969 c-53 -26 -93 -76 -123 -154 -19 -49 -24 -85 -28 -200 -6
-208 25 -315 110 -378 95 -70 246 -61 322 19 63 67 86 144 93 310 10 230 -30
338 -146 397 -70 35 -164 38 -228 6z m178 -92 c23 -16 42 -41 59 -82 22 -54
24 -74 25 -205 0 -117 -4 -154 -18 -192 -54 -140 -199 -146 -260 -10 -24 56
-33 208 -19 311 13 88 50 155 102 182 46 25 70 24 111 -4z"/>
<path d="M6985 2976 c-55 -24 -112 -98 -137 -178 -31 -97 -33 -329 -5 -421 37
-116 111 -178 223 -185 172 -11 260 89 283 323 25 255 -36 415 -178 463 -45
16 -149 14 -186 -2z m187 -113 c55 -52 86 -218 69 -360 -18 -145 -68 -213
-159 -213 -53 0 -92 33 -122 102 -20 46 -23 69 -23 183 0 157 17 225 65 272
62 59 119 65 170 16z"/>
<path d="M7593 2971 c-89 -41 -141 -161 -150 -351 -7 -147 8 -241 50 -311 45
-75 101 -111 186 -117 163 -11 246 66 287 268 20 99 14 262 -12 350 -20 67
-101 153 -160 169 -61 17 -153 13 -201 -8z m184 -99 c62 -40 88 -144 81 -326
-4 -99 -9 -132 -26 -167 -57 -116 -185 -119 -244 -6 -19 36 -23 62 -26 177 -6
217 17 293 102 331 43 19 74 17 113 -9z"/>
<path d="M6658 2034 c-3 -5 -9 -30 -12 -57 -11 -71 -28 -78 -204 -88 -81 -5
-165 -14 -188 -20 -30 -8 -52 -8 -80 0 -21 6 -111 15 -199 20 -201 10 -224 21
-225 114 0 15 -4 27 -10 27 -14 0 -13 -44 2 -92 8 -27 20 -43 36 -49 14 -5 97
-14 186 -20 225 -15 220 -13 226 -80 6 -56 6 -56 32 14 18 47 42 55 208 66 85
5 167 14 182 20 32 12 54 44 62 91 5 33 -6 71 -16 54z"/>
<path d="M5288 1630 c-9 -14 -26 -53 -38 -87 -13 -35 -26 -60 -31 -57 -5 3 -9
10 -9 15 0 20 -62 143 -67 132 -6 -17 31 -129 58 -172 19 -31 21 -32 38 -17
21 19 74 167 69 193 -3 16 -6 15 -20 -7z"/>
<path d="M5507 1620 c-9 -33 -8 -150 2 -175 12 -29 23 109 13 160 -7 37 -8 38
-15 15z"/>
<path d="M6555 1630 c3 -5 10 -10 16 -10 5 0 9 5 9 10 0 6 -7 10 -16 10 -8 0
-12 -4 -9 -10z"/>
<path d="M6970 1535 c0 -57 4 -95 10 -95 6 0 10 38 10 95 0 57 -4 95 -10 95
-6 0 -10 -38 -10 -95z"/>
<path d="M7387 1607 c-13 -20 -13 -30 2 -90 9 -38 23 -72 31 -77 20 -13 50
-12 50 0 0 6 -8 14 -17 17 -25 9 -33 23 -33 61 0 26 5 35 25 42 30 11 33 30 6
30 -11 0 -23 9 -26 20 -8 26 -19 25 -38 -3z"/>
<path d="M5340 1580 c0 -5 16 -12 35 -16 43 -8 45 -20 5 -29 -33 -7 -53 -35
-48 -68 3 -24 31 -34 92 -36 l38 -1 -4 66 c-3 50 -9 70 -23 80 -21 16 -95 19
-95 4z m76 -82 c8 -12 -21 -38 -43 -38 -17 0 -17 37 0 43 21 9 36 7 43 -5z"/>
<path d="M5587 1583 c-4 -3 -7 -37 -7 -73 l0 -67 31 -7 c17 -3 47 -6 66 -6
l34 0 -3 75 c-2 41 -7 75 -13 76 -5 0 -15 -24 -20 -53 -9 -42 -15 -54 -32 -56
-22 -3 -32 19 -33 68 0 29 -13 53 -23 43z"/>
<path d="M5776 1575 c-21 -21 -29 -75 -17 -107 11 -29 61 -46 100 -33 33 10
25 23 -21 30 -73 12 -75 45 -3 45 36 0 45 4 51 22 14 44 -74 79 -110 43z m72
-32 c2 -9 -7 -13 -27 -13 -30 0 -46 11 -34 24 11 11 56 2 61 -11z"/>
<path d="M6054 1582 c-18 -12 -34 -49 -34 -80 0 -39 30 -63 85 -69 37 -5 45
-3 45 11 0 12 -10 16 -40 16 -29 0 -42 5 -50 20 -12 23 -6 28 50 32 29 2 36 8
38 27 3 15 -3 30 -14 38 -19 14 -62 17 -80 5z m64 -39 c2 -9 -8 -13 -32 -13
-34 0 -44 8 -29 24 11 11 56 2 61 -11z"/>
<path d="M6206 1568 c-17 -25 -21 -94 -7 -117 6 -9 27 -15 53 -16 39 -1 43 -3
46 -28 2 -15 7 -27 11 -27 13 0 21 55 21 136 l0 74 -54 0 c-45 0 -58 -4 -70
-22z m71 -16 c25 -16 19 -68 -9 -83 -18 -10 -24 -8 -35 7 -14 19 -18 66 -6 77
8 9 35 9 50 -1z"/>
<path d="M6370 1526 c0 -56 3 -67 22 -80 12 -9 42 -16 65 -16 l43 0 0 74 c0
41 -4 77 -9 80 -12 8 -21 -18 -21 -58 0 -18 -6 -41 -14 -52 -24 -32 -49 -7
-60 60 -4 31 -12 56 -17 56 -5 0 -9 -29 -9 -64z"/>
<path d="M6556 1551 c-8 -52 4 -135 15 -106 10 27 11 117 0 133 -5 9 -10 0
-15 -27z"/>
<path d="M6624 1558 c10 -50 49 -123 66 -123 9 0 25 27 42 70 31 80 32 85 17
85 -6 0 -20 -22 -32 -50 -11 -27 -24 -50 -28 -50 -3 0 -16 23 -27 50 -24 57
-48 69 -38 18z"/>
<path d="M6797 1584 c-13 -13 5 -24 38 -24 19 0 37 -4 40 -10 3 -5 -1 -10 -9
-10 -31 0 -65 -23 -77 -53 -11 -26 -10 -31 6 -43 10 -8 40 -14 67 -14 l48 0 0
70 c0 58 -3 71 -19 80 -22 11 -84 14 -94 4z m83 -94 c0 -13 -9 -22 -26 -26
-37 -9 -51 10 -23 30 31 22 49 20 49 -4z"/>
<path d="M7056 1575 c-21 -21 -29 -75 -17 -107 11 -29 61 -46 100 -33 33 10
25 23 -21 30 -73 12 -75 45 -3 45 36 0 45 4 51 22 14 44 -74 79 -110 43z m72
-32 c2 -9 -7 -13 -27 -13 -30 0 -46 11 -34 24 11 11 56 2 61 -11z"/>
<path d="M7210 1516 c0 -88 15 -108 23 -34 8 61 28 88 55 72 9 -6 18 -22 20
-35 11 -102 32 -117 32 -23 0 70 -21 94 -85 94 l-45 0 0 -74z"/>
<path d="M6187 1290 c-9 -34 -8 -150 2 -175 13 -30 24 100 13 155 -7 40 -9 42
-15 20z"/>
<path d="M5037 1294 c-9 -9 -7 -130 2 -164 5 -19 14 -26 39 -28 39 -4 39 0 6
33 -33 33 -31 88 4 93 26 4 29 20 5 29 -10 3 -25 14 -33 25 -9 10 -19 16 -23
12z"/>
<path d="M7005 1269 c-8 -37 3 -139 17 -156 12 -15 54 -17 62 -4 3 4 -5 13
-18 19 -24 10 -39 53 -29 80 3 7 17 18 30 23 27 10 22 29 -7 29 -10 0 -22 9
-25 20 -9 29 -22 24 -30 -11z"/>
<path d="M5163 1234 c-21 -21 -25 -32 -20 -65 7 -51 22 -69 59 -69 34 0 78 39
78 70 0 29 -26 76 -45 84 -29 11 -45 6 -72 -20z m58 -14 c12 -7 19 -21 19 -38
0 -38 -13 -54 -41 -50 -28 4 -37 44 -19 78 12 23 15 24 41 10z"/>
<path d="M5420 1162 c0 -95 12 -136 27 -95 8 23 23 33 50 33 30 0 53 37 53 86
0 51 -11 61 -78 70 l-52 7 0 -101z m95 18 c0 -43 -1 -45 -32 -48 -33 -3 -33
-3 -33 42 0 46 9 56 45 53 17 -2 20 -9 20 -47z"/>
<path d="M5741 1243 c-14 -11 -24 -33 -28 -59 -7 -57 21 -86 79 -82 56 4 64
28 9 28 -30 0 -43 5 -51 20 -10 19 -4 22 80 33 8 1 16 9 18 17 8 45 -67 75
-107 43z m65 -27 c18 -14 18 -15 -8 -21 -39 -10 -64 1 -48 20 16 19 31 19 56
1z"/>
<path d="M6040 1247 c-14 -7 -31 -25 -38 -40 -12 -24 -11 -33 5 -65 20 -40 41
-48 100 -37 41 7 34 25 -10 25 -73 1 -77 47 -5 52 39 3 43 5 40 28 -5 45 -44
61 -92 37z m44 -23 c13 -5 14 -9 5 -20 -20 -25 -60 -10 -44 16 7 12 17 12 39
4z"/>
<path d="M6272 1237 c-31 -33 -30 -100 0 -121 28 -20 112 -22 106 -3 -3 6 -23
13 -45 15 -26 2 -43 9 -47 19 -9 22 -4 25 49 30 39 5 45 9 45 29 0 26 -34 54
-65 54 -12 0 -31 -10 -43 -23z m67 -20 c14 -17 4 -27 -25 -27 -28 0 -42 19
-23 31 20 12 35 11 48 -4z"/>
<path d="M6438 1254 c-16 -15 -7 -24 21 -24 37 0 49 -16 19 -25 -32 -10 -68
-45 -68 -66 0 -20 47 -39 96 -39 l34 0 0 63 c0 34 -4 68 -9 75 -9 15 -82 28
-93 16z m67 -84 c9 -15 -14 -40 -36 -40 -24 0 -25 26 -1 39 22 13 29 13 37 1z"/>
<path d="M6601 1241 c-33 -33 -29 -42 39 -84 l35 -22 -35 -3 c-53 -4 -69 -12
-45 -22 33 -14 72 -11 89 6 25 24 19 43 -19 65 -43 26 -45 39 -6 39 29 0 49
14 34 23 -5 3 -22 8 -40 11 -25 6 -36 3 -52 -13z"/>
<path d="M6773 1250 c-72 -29 -46 -150 32 -150 18 0 40 3 49 6 27 10 18 24
-17 24 -18 0 -42 7 -53 15 -16 13 -17 16 -4 25 8 5 30 10 48 10 40 0 50 21 28
55 -17 26 -44 31 -83 15z m52 -40 c0 -18 -33 -26 -47 -12 -6 6 -7 15 -3 22 10
16 50 8 50 -10z"/>
<path d="M7138 1255 c-13 -13 2 -25 32 -25 44 0 45 -17 3 -31 -44 -14 -53 -24
-53 -60 0 -32 15 -39 82 -39 l51 0 -6 66 c-2 36 -9 70 -15 76 -12 12 -85 22
-94 13z m74 -100 c3 -17 -50 -31 -64 -17 -10 10 -10 15 2 23 18 11 60 8 62 -6z"/>
<path d="M7320 1253 c-24 -9 -30 -25 -30 -75 0 -40 4 -50 25 -64 14 -9 36 -14
50 -12 44 9 27 -12 -20 -24 -25 -7 -45 -15 -45 -19 0 -14 59 -20 80 -9 30 16
40 50 40 136 l0 74 -42 -1 c-24 0 -50 -3 -58 -6z m68 -61 c4 -38 -12 -62 -39
-62 -23 0 -30 12 -31 51 -2 58 65 69 70 11z"/>
<path d="M7481 1241 c-12 -12 -21 -25 -21 -30 0 -14 27 -39 50 -46 37 -12 15
-35 -32 -35 -37 0 -12 -25 29 -28 27 -2 46 2 57 13 25 25 19 44 -19 66 -43 26
-45 39 -6 39 29 0 49 14 34 23 -5 3 -22 8 -40 11 -25 6 -36 3 -52 -13z"/>
<path d="M5590 1191 c0 -33 3 -66 6 -75 10 -26 24 -7 24 32 0 43 7 55 38 71
35 19 26 31 -23 31 l-45 0 0 -59z"/>
<path d="M5890 1175 c0 -43 4 -75 10 -75 6 0 10 11 10 24 0 58 13 89 42 100
41 15 34 26 -17 26 l-45 0 0 -75z"/>
<path d="M4564 923 c-28 -61 -30 -124 -4 -177 12 -25 28 -46 36 -46 18 0 18 0
-6 60 -25 63 -25 93 0 149 24 51 24 51 6 51 -7 0 -22 -17 -32 -37z"/>
<path d="M4836 909 c-8 -67 3 -175 15 -144 10 26 10 154 0 180 -6 15 -10 6
-15 -36z"/>
<path d="M5106 944 c-9 -24 -7 -167 3 -182 11 -18 21 7 21 49 0 41 17 69 40
69 17 0 20 -7 21 -47 0 -27 4 -57 9 -68 13 -33 21 2 18 76 l-3 64 -42 3 c-38
3 -43 6 -43 28 0 27 -15 32 -24 8z"/>
<path d="M6066 944 c-3 -9 -6 -56 -6 -105 l0 -89 45 0 c60 0 85 24 85 84 0 54
-19 76 -66 76 -30 0 -34 3 -34 25 0 28 -15 34 -24 9z m89 -108 c0 -42 -20 -64
-49 -53 -11 4 -16 18 -16 45 0 46 6 54 40 50 22 -3 25 -8 25 -42z"/>
<path d="M6922 953 c-21 -8 -2 -23 31 -23 72 -1 72 -34 -1 -112 -37 -40 -43
-51 -31 -59 16 -10 99 -12 123 -3 28 11 6 24 -41 24 l-46 0 41 44 c50 54 59
80 38 111 -13 20 -24 25 -59 24 -23 0 -48 -3 -55 -6z"/>
<path d="M7817 953 c-16 -15 -5 -23 33 -23 45 0 52 -16 20 -45 -23 -21 -26
-35 -6 -35 20 0 37 -25 30 -44 -4 -10 -18 -16 -38 -16 -17 0 -38 -5 -46 -10
-13 -9 -13 -11 0 -20 20 -13 50 -13 89 1 37 13 50 48 28 80 -11 16 -13 27 -6
43 7 14 7 31 0 49 -9 24 -16 27 -54 27 -24 0 -47 -3 -50 -7z"/>
<path d="M7990 956 c0 -2 9 -23 20 -47 25 -57 25 -110 -1 -160 -21 -42 -20
-55 4 -46 19 7 47 90 47 136 0 46 -34 121 -55 121 -8 0 -15 -2 -15 -4z"/>
<path d="M5700 935 c-11 -13 -10 -18 3 -28 26 -20 27 -127 1 -127 -9 0 -14 -6
-12 -12 5 -13 108 -25 108 -13 0 4 -9 14 -21 24 -16 13 -22 33 -27 91 -5 57
-11 75 -23 78 -9 1 -22 -4 -29 -13z"/>
<path d="M6404 924 c-4 -14 -4 -54 0 -87 6 -64 22 -87 57 -87 28 0 32 19 5 26
-41 10 -45 97 -5 107 22 6 26 27 4 27 -8 0 -20 9 -27 20 -17 27 -26 25 -34 -6z"/>
<path d="M4675 900 c-3 -5 12 -12 35 -16 47 -8 52 -19 13 -29 -41 -10 -53 -24
-53 -60 0 -30 3 -33 38 -39 83 -13 82 -14 82 64 0 66 -1 71 -26 80 -33 13 -81
13 -89 0z m85 -83 c0 -20 -22 -37 -47 -37 -27 0 -31 24 -5 39 24 15 52 13 52
-2z"/>
<path d="M4910 829 c0 -89 7 -129 21 -129 5 0 9 9 9 19 0 20 18 31 51 31 35 0
59 36 59 89 0 28 -4 52 -9 55 -5 4 -37 9 -70 12 l-61 7 0 -84z m94 35 c3 -9 6
-29 6 -45 0 -24 -4 -29 -23 -29 -44 0 -61 38 -30 72 20 22 39 23 47 2z"/>
<path d="M5287 904 c-12 -12 4 -24 33 -24 39 0 47 -16 12 -25 -15 -3 -37 -16
-49 -27 -43 -40 -25 -63 55 -74 l52 -7 0 70 c0 40 -5 74 -12 81 -13 13 -80 17
-91 6z m71 -90 c-5 -25 -35 -41 -49 -27 -9 9 -9 16 1 28 17 21 52 20 48 -1z"/>
<path d="M6245 885 c-29 -28 -31 -54 -10 -95 18 -34 44 -44 92 -35 47 9 37 29
-18 35 -59 7 -62 34 -4 38 57 5 68 17 49 53 -19 39 -73 41 -109 4z m75 -20 c0
-10 -10 -15 -30 -15 -22 0 -28 4 -24 15 4 8 17 15 30 15 15 0 24 -6 24 -15z"/>
<path d="M6527 904 c-12 -12 4 -24 33 -24 39 0 47 -16 12 -25 -15 -3 -37 -16
-49 -27 -43 -40 -25 -63 55 -74 l52 -7 0 70 c0 40 -5 74 -12 81 -13 13 -80 17
-91 6z m71 -90 c-5 -25 -35 -41 -49 -27 -9 9 -9 16 1 28 17 21 52 20 48 -1z"/>
<path d="M7300 843 c0 -71 12 -109 24 -78 3 9 6 32 6 51 0 25 7 39 30 55 36
27 30 39 -21 39 l-39 0 0 -67z"/>
<path d="M7430 883 c-14 -19 -20 -38 -18 -62 2 -30 9 -39 40 -56 32 -17 39
-18 65 -5 l28 13 -42 10 c-31 7 -43 15 -47 32 -9 35 3 55 33 55 14 0 32 4 40
9 11 7 10 11 -7 20 -35 19 -69 13 -92 -16z"/>
<path d="M5492 882 c-23 -2 -40 -7 -37 -13 8 -12 152 -12 159 0 7 10 -59 17
-122 13z"/>
<path d="M6732 882 c-23 -2 -40 -7 -37 -13 8 -12 152 -12 159 0 7 10 -59 17
-122 13z"/>
<path d="M7590 870 c0 -6 30 -10 70 -10 40 0 70 4 70 10 0 6 -30 10 -70 10
-40 0 -70 -4 -70 -10z"/>
<path d="M5466 821 c-3 -5 1 -12 10 -15 35 -14 148 -1 138 15 -7 12 -141 12
-148 0z"/>
<path d="M6706 821 c-3 -5 1 -12 10 -15 35 -14 148 -1 138 15 -7 12 -141 12
-148 0z"/>
<path d="M7592 821 c-20 -12 59 -23 109 -15 55 9 30 24 -41 24 -30 0 -61 -4
-68 -9z"/>
<path d="M5864 755 c-16 -40 -18 -55 -4 -55 10 0 24 22 40 64 15 42 -18 33
-36 -9z"/>
<path d="M7110 764 c-12 -32 -13 -64 -1 -64 7 0 41 70 41 85 0 3 -7 5 -15 5
-9 0 -20 -12 -25 -26z"/>
</g>
</svg>
