<?xml version="1.0" standalone="no"?>
<!DOCTYPE svg PUBLIC "-//W3C//DTD SVG 20010904//EN"
 "http://www.w3.org/TR/2001/REC-SVG-20010904/DTD/svg10.dtd">
<svg version="1.0" xmlns="http://www.w3.org/2000/svg"
 width="608.000000pt" height="300.000000pt" viewBox="0 0 708.000000 392.000000"
 preserveAspectRatio="xMidYMid meet">

<g transform="translate(0.000000,392.000000) scale(0.100000,-0.100000)"
fill="red" stroke="none">
<path d="M30 1970 l0 -1930 3510 0 3510 0 0 1930 0 1930 -3510 0 -3510 0 0
-1930z m7000 0 l0 -1910 -3490 0 -3490 0 0 1910 0 1910 3490 0 3490 0 0 -1910z"/>
<path d="M1130 3120 c0 -47 4 -80 10 -80 6 0 10 28 10 63 l0 62 20 -42 c10
-24 21 -43 24 -43 3 0 14 17 25 38 l20 37 1 -57 c0 -45 3 -58 15 -58 13 0 15
13 13 77 -4 91 -18 103 -49 41 l-22 -43 -20 43 c-33 67 -47 55 -47 -38z"/>
<path d="M1450 3190 c0 -5 5 -10 10 -10 6 0 10 5 10 10 0 6 -4 10 -10 10 -5 0
-10 -4 -10 -10z"/>
<path d="M2260 3100 c0 -47 4 -80 10 -80 6 0 10 28 10 63 l0 62 20 -42 c10
-24 21 -43 24 -43 3 0 14 17 25 38 l20 37 1 -57 c0 -45 3 -58 15 -58 13 0 15
13 13 77 -4 91 -18 103 -49 41 l-22 -43 -20 43 c-33 67 -47 55 -47 -38z"/>
<path d="M2435 3170 c-3 -5 1 -10 9 -10 9 0 16 5 16 10 0 6 -4 10 -9 10 -6 0
-13 -4 -16 -10z"/>
<path d="M3400 3100 c0 -44 4 -80 9 -80 5 0 11 12 13 28 2 20 9 28 28 30 36 5
50 20 50 53 0 33 -23 49 -69 49 l-31 0 0 -80z m68 51 c23 -14 10 -46 -21 -49
-23 -3 -27 0 -27 21 0 36 19 47 48 28z"/>
<path d="M3850 3100 c0 -86 17 -111 22 -32 3 40 6 47 26 50 20 3 22 0 22 -47
0 -29 5 -51 10 -51 7 0 10 22 8 58 l-3 57 -32 0 c-28 0 -33 4 -33 22 0 13 -4
23 -10 23 -6 0 -10 -33 -10 -80z"/>
<path d="M4530 3170 c0 -5 5 -10 10 -10 6 0 10 -27 10 -60 0 -33 -4 -60 -10
-60 -5 0 -10 -4 -10 -10 0 -5 14 -10 30 -10 17 0 30 5 30 10 0 6 -4 10 -10 10
-6 0 -10 27 -10 60 0 33 4 60 10 60 6 0 10 5 10 10 0 6 -13 10 -30 10 -16 0
-30 -4 -30 -10z"/>
<path d="M5770 3100 c0 -47 4 -80 10 -80 6 0 10 33 10 80 0 47 -4 80 -10 80
-6 0 -10 -33 -10 -80z"/>
<path d="M6150 3100 c0 -47 4 -80 10 -80 6 0 10 33 10 80 0 47 -4 80 -10 80
-6 0 -10 -33 -10 -80z"/>
<path d="M3649 3153 c-3 -29 2 -97 7 -115 3 -11 15 -18 30 -18 29 0 32 16 4
23 -15 4 -20 14 -20 41 0 29 4 36 20 36 11 0 20 5 20 10 0 6 -9 10 -20 10 -11
0 -20 7 -20 15 0 21 -20 19 -21 -2z"/>
<path d="M5560 3156 c0 -8 -6 -17 -12 -19 -10 -4 -10 -7 -1 -14 6 -5 13 -29
15 -53 3 -41 6 -45 31 -48 15 -2 27 1 27 7 0 6 -9 11 -20 11 -17 0 -20 7 -20
40 0 33 3 40 20 40 11 0 20 5 20 10 0 6 -9 10 -20 10 -11 0 -20 7 -20 15 0 8
-4 15 -10 15 -5 0 -10 -6 -10 -14z"/>
<path d="M1310 3150 c0 -5 13 -10 28 -10 44 0 47 -13 5 -25 -33 -9 -38 -14
-38 -40 0 -29 2 -30 48 -31 l47 -2 0 47 c0 26 -5 52 -12 59 -14 14 -78 16 -78
2z m68 -67 c-4 -23 -58 -31 -58 -9 0 15 14 24 43 25 12 1 17 -5 15 -16z"/>
<path d="M1425 3150 c-3 -5 1 -10 9 -10 13 0 16 -12 16 -56 0 -47 -3 -57 -20
-61 -28 -7 -25 -23 4 -23 30 0 36 16 36 96 0 57 -2 64 -19 64 -11 0 -23 -4
-26 -10z"/>
<path d="M1516 3145 c-19 -20 -21 -64 -3 -89 20 -27 69 -18 85 17 27 57 -39
115 -82 72z m59 -45 c0 -29 -4 -36 -23 -38 -26 -4 -37 17 -28 54 5 19 12 25
29 22 18 -2 22 -9 22 -38z"/>
<path d="M1640 3098 c0 -32 4 -58 10 -58 6 0 10 20 10 45 0 39 3 45 25 51 37
9 30 22 -10 21 l-35 -1 0 -58z"/>
<path d="M2440 3080 c0 -33 4 -60 10 -60 6 0 10 27 10 60 0 33 -4 60 -10 60
-6 0 -10 -27 -10 -60z"/>
<path d="M2490 3078 c0 -32 4 -58 10 -58 6 0 10 17 10 39 0 41 20 67 45 57 10
-4 15 -19 15 -51 0 -25 5 -45 10 -45 12 0 13 89 2 107 -4 7 -26 11 -50 10
l-42 -1 0 -58z"/>
<path d="M2637 3122 c-35 -38 -12 -102 37 -102 27 0 56 29 56 56 0 54 -60 83
-93 46z m63 -22 c16 -30 3 -60 -25 -60 -18 0 -26 7 -31 25 -12 46 35 75 56 35z"/>
<path d="M2760 3078 c0 -32 4 -58 10 -58 6 0 10 20 10 45 0 39 3 45 25 51 37
9 30 22 -10 21 l-35 -1 0 -58z"/>
<path d="M3530 3130 c0 -5 14 -10 30 -10 40 0 38 -13 -2 -25 -28 -8 -33 -15
-33 -40 0 -29 2 -30 48 -32 l47 -2 0 34 c0 62 -15 85 -55 85 -19 0 -35 -4 -35
-10z m58 -67 c-4 -22 -48 -31 -48 -10 0 19 10 27 32 27 13 0 18 -6 16 -17z"/>
<path d="M3748 3129 c-22 -13 -24 -81 -4 -98 17 -14 68 -11 73 4 2 6 -12 10
-29 10 -31 0 -33 2 -33 35 0 33 2 35 33 35 17 0 31 4 29 10 -5 14 -49 17 -69
4z"/>
<path d="M4630 3079 c0 -70 18 -79 22 -11 3 40 6 47 26 50 20 3 22 0 22 -47 0
-29 5 -51 10 -51 7 0 10 22 8 58 l-3 57 -42 1 -43 2 0 -59z"/>
<path d="M4766 3118 c-9 -12 -16 -29 -16 -38 0 -33 31 -61 63 -58 41 4 45 23
5 23 -31 0 -33 2 -33 35 0 33 2 35 33 33 42 -1 38 21 -5 25 -23 2 -35 -3 -47
-20z"/>
<path d="M4870 3078 c0 -32 4 -58 10 -58 6 0 10 18 10 40 0 33 4 42 25 52 35
16 31 26 -10 25 l-35 -1 0 -58z"/>
<path d="M4966 3118 c-20 -28 -20 -48 0 -76 12 -18 24 -22 52 -20 49 4 54 26
5 24 -28 -1 -38 3 -41 17 -3 14 4 17 37 17 42 0 48 8 31 41 -15 27 -64 25 -84
-3z m64 -13 c0 -9 -9 -15 -25 -15 -24 0 -32 10 -18 23 12 13 43 7 43 -8z"/>
<path d="M5090 3079 c0 -70 18 -79 22 -11 3 40 6 47 26 50 20 3 22 0 22 -47 0
-28 5 -51 10 -51 6 0 10 17 10 39 0 41 20 67 45 57 10 -4 15 -19 15 -51 0 -25
5 -45 10 -45 15 0 12 97 -2 107 -7 4 -46 9 -85 9 l-73 1 0 -58z"/>
<path d="M5306 3124 c-9 -8 -16 -28 -16 -44 0 -16 7 -36 16 -44 19 -20 84 -22
84 -3 0 9 -10 12 -31 9 -20 -3 -34 0 -40 9 -15 24 -10 29 31 29 32 0 40 4 40
18 0 40 -54 57 -84 26z m62 -21 c2 -9 -7 -13 -27 -13 -30 0 -39 9 -24 24 11
10 46 3 51 -11z"/>
<path d="M5420 3078 c0 -32 4 -58 10 -58 6 0 10 20 10 44 0 36 4 46 20 51 31
10 40 -2 40 -51 0 -24 5 -44 10 -44 15 0 12 96 -2 108 -7 6 -30 10 -50 9 l-38
-1 0 -58z"/>
<path d="M5645 3130 c-4 -6 6 -10 24 -10 16 0 33 -4 36 -10 3 -5 -3 -10 -13
-10 -11 0 -30 -9 -43 -19 -35 -29 -16 -56 40 -57 l41 -2 0 53 c0 39 -4 54 -16
59 -24 9 -62 7 -69 -4z m63 -67 c-4 -22 -48 -31 -48 -10 0 19 10 27 32 27 13
0 18 -6 16 -17z"/>
<path d="M5890 3136 c0 -20 46 -116 55 -116 7 0 22 25 34 56 24 64 24 64 12
64 -5 0 -17 -19 -26 -42 l-18 -43 -19 43 c-10 23 -23 42 -28 42 -6 0 -10 -2
-10 -4z"/>
<path d="M6030 3130 c0 -5 14 -10 30 -10 40 0 38 -13 -2 -25 -28 -8 -33 -15
-33 -40 0 -29 2 -30 48 -32 l47 -2 0 34 c0 62 -15 85 -55 85 -19 0 -35 -4 -35
-10z m58 -67 c-4 -22 -48 -31 -48 -10 0 19 10 27 32 27 13 0 18 -6 16 -17z"/>
<path d="M6212 3083 l3 -58 48 -2 47 -2 0 61 c0 72 -22 77 -30 7 -4 -36 -9
-44 -25 -44 -17 0 -20 8 -23 48 -2 26 -8 47 -13 47 -6 0 -9 -24 -7 -57z"/>
<path d="M6358 3129 c-22 -12 -24 -81 -4 -98 17 -14 78 -11 83 4 2 6 -14 10
-34 10 -28 0 -38 5 -41 18 -3 14 4 17 37 17 33 0 41 4 41 18 0 37 -44 54 -82
31z m60 -26 c2 -9 -7 -13 -27 -13 -30 0 -39 9 -24 24 11 10 46 3 51 -11z"/>
<path d="M1064 2905 c18 -71 49 -136 63 -133 14 3 62 115 63 146 0 31 -18 6
-39 -53 -13 -36 -25 -65 -26 -65 -2 0 -13 29 -25 65 -12 36 -26 65 -32 65 -6
0 -8 -11 -4 -25z"/>
<path d="M1530 2920 c0 -5 7 -10 16 -10 8 0 12 5 9 10 -3 6 -10 10 -16 10 -5
0 -9 -4 -9 -10z"/>
<path d="M2182 2919 c3 -8 16 -44 29 -81 32 -90 47 -89 82 9 25 71 28 99 8 77
-5 -5 -16 -33 -26 -61 -9 -29 -20 -53 -23 -53 -4 0 -16 26 -28 57 -11 31 -26
59 -34 61 -8 3 -11 -1 -8 -9z"/>
<path d="M2660 2920 c0 -5 5 -10 10 -10 6 0 10 5 10 10 0 6 -4 10 -10 10 -5 0
-10 -4 -10 -10z"/>
<path d="M3322 2919 c3 -8 16 -44 29 -81 32 -90 47 -89 82 9 25 71 28 99 8 77
-5 -5 -16 -33 -26 -61 -9 -29 -20 -53 -23 -53 -4 0 -16 26 -28 57 -11 31 -26
59 -34 61 -8 3 -11 -1 -8 -9z"/>
<path d="M3800 2920 c0 -5 5 -10 10 -10 6 0 10 5 10 10 0 6 -4 10 -10 10 -5 0
-10 -4 -10 -10z"/>
<path d="M4814 2908 c-12 -27 -6 -138 7 -138 5 0 9 23 9 50 0 43 3 50 20 50
11 0 20 5 20 10 0 6 -10 10 -21 10 -18 0 -19 2 -9 15 7 8 16 12 21 9 5 -3 9 0
9 5 0 21 -47 11 -56 -11z"/>
<path d="M5435 2920 c-3 -5 1 -10 9 -10 9 0 16 5 16 10 0 6 -4 10 -9 10 -6 0
-13 -4 -16 -10z"/>
<path d="M5868 2903 c-2 -10 -2 -43 1 -73 6 -51 8 -55 34 -58 15 -2 27 1 27 7
0 6 -9 11 -20 11 -17 0 -20 7 -20 40 0 33 3 40 20 40 11 0 20 5 20 10 0 6 -9
10 -20 10 -11 0 -20 7 -20 15 0 21 -17 19 -22 -2z"/>
<path d="M1216 2874 c-20 -20 -20 -68 0 -88 19 -20 84 -22 84 -3 0 9 -10 12
-31 9 -20 -3 -34 0 -40 9 -15 24 -10 29 31 29 32 0 40 4 40 18 0 40 -54 57
-84 26z m62 -21 c2 -9 -7 -13 -27 -13 -30 0 -39 9 -24 24 11 10 46 3 51 -11z"/>
<path d="M1330 2828 c0 -32 4 -58 10 -58 6 0 10 18 10 41 0 36 3 42 30 52 41
16 38 25 -10 23 l-40 -1 0 -57z"/>
<path d="M1433 2883 c-7 -2 -13 -15 -13 -28 0 -17 8 -26 30 -34 17 -5 30 -15
30 -22 0 -7 -11 -10 -30 -7 -20 3 -30 0 -30 -9 0 -8 12 -13 34 -13 61 0 72 49
15 69 -39 13 -38 35 1 29 20 -3 30 0 30 9 0 13 -41 17 -67 6z"/>
<path d="M1530 2830 c0 -33 4 -60 10 -60 6 0 10 27 10 60 0 33 -4 60 -10 60
-6 0 -10 -27 -10 -60z"/>
<path d="M1602 2878 c-7 -7 -12 -28 -12 -48 0 -43 14 -60 50 -60 36 0 50 17
50 60 0 43 -14 60 -50 60 -14 0 -31 -5 -38 -12z m63 -48 c0 -31 -3 -35 -25
-35 -19 0 -26 6 -28 23 -5 36 5 54 30 50 19 -2 23 -9 23 -38z"/>
<path d="M1720 2828 c0 -32 4 -58 10 -58 6 0 10 20 10 44 0 36 4 46 20 51 31
10 40 -2 40 -51 0 -24 5 -44 10 -44 15 0 12 96 -2 108 -7 6 -30 10 -50 9 l-38
-1 0 -58z"/>
<path d="M2336 2868 c-20 -28 -20 -48 0 -76 12 -18 24 -22 52 -20 49 4 54 26
5 24 -28 -1 -38 3 -41 17 -3 14 4 17 37 17 42 0 48 8 31 41 -15 27 -64 25 -84
-3z m64 -13 c0 -9 -9 -15 -25 -15 -24 0 -32 10 -18 23 12 13 43 7 43 -8z"/>
<path d="M2460 2828 c0 -32 4 -58 10 -58 6 0 10 20 10 45 0 39 3 45 25 51 37
9 30 22 -10 21 l-35 -1 0 -58z"/>
<path d="M2550 2875 c-17 -21 -3 -47 30 -55 13 -3 26 -12 28 -19 3 -10 -5 -12
-32 -9 -23 2 -35 0 -33 -6 2 -6 17 -12 34 -14 58 -6 70 54 14 68 -31 7 -22 25
12 23 38 -2 29 21 -10 25 -18 2 -35 -3 -43 -13z"/>
<path d="M2660 2830 c0 -33 4 -60 10 -60 6 0 10 27 10 60 0 33 -4 60 -10 60
-6 0 -10 -27 -10 -60z"/>
<path d="M2727 2872 c-35 -38 -12 -102 37 -102 27 0 56 29 56 56 0 54 -60 83
-93 46z m63 -22 c16 -30 3 -60 -25 -60 -18 0 -26 7 -31 25 -12 46 35 75 56 35z"/>
<path d="M2850 2828 c0 -69 18 -78 22 -11 2 37 7 49 22 51 24 5 36 -14 36 -60
0 -21 5 -38 10 -38 13 0 13 76 0 101 -8 14 -20 18 -50 17 l-40 -1 0 -59z"/>
<path d="M3476 2868 c-20 -28 -20 -48 0 -76 12 -18 24 -22 52 -20 49 4 54 26
5 24 -28 -1 -38 3 -41 17 -3 14 4 17 37 17 42 0 48 8 31 41 -15 27 -64 25 -84
-3z m64 -13 c0 -9 -9 -15 -25 -15 -24 0 -32 10 -18 23 12 13 43 7 43 -8z"/>
<path d="M3600 2828 c0 -32 4 -58 10 -58 6 0 10 20 10 45 0 39 3 45 25 51 37
9 30 22 -10 21 l-35 -1 0 -58z"/>
<path d="M3690 2875 c-17 -21 -3 -47 29 -55 30 -7 22 -25 -11 -25 -16 0 -28
-5 -28 -12 0 -19 65 -16 81 3 16 20 2 46 -30 54 -31 7 -22 25 12 23 38 -2 29
21 -10 25 -18 2 -35 -3 -43 -13z"/>
<path d="M3800 2830 c0 -33 4 -60 10 -60 6 0 10 27 10 60 0 33 -4 60 -10 60
-6 0 -10 -27 -10 -60z"/>
<path d="M3866 2875 c-19 -20 -21 -64 -3 -89 20 -27 69 -18 85 17 27 57 -39
115 -82 72z m59 -45 c0 -29 -4 -36 -23 -38 -26 -4 -37 17 -28 54 5 19 12 25
29 22 18 -2 22 -9 22 -38z"/>
<path d="M3990 2829 c0 -70 18 -79 22 -11 3 40 6 47 26 50 20 3 22 0 22 -47 0
-29 5 -51 10 -51 7 0 10 22 8 58 l-3 57 -42 1 -43 2 0 -59z"/>
<path d="M4686 2868 c-9 -12 -16 -29 -16 -38 0 -51 77 -83 100 -41 37 69 -41
141 -84 79z m69 -18 c10 -33 -4 -62 -28 -58 -22 3 -34 35 -23 64 8 21 44 17
51 -6z"/>
<path d="M4960 2808 c0 -45 4 -78 10 -78 6 0 10 9 10 20 0 15 7 20 28 20 38 0
52 17 52 61 0 45 -15 59 -63 57 l-37 -1 0 -79z m75 22 c0 -31 -3 -35 -27 -38
-26 -3 -28 -1 -28 31 0 40 7 49 35 45 16 -2 20 -10 20 -38z"/>
<path d="M5090 2828 c0 -32 4 -58 10 -58 6 0 10 18 10 41 0 36 3 42 30 52 41
16 38 25 -10 23 l-40 -1 0 -57z"/>
<path d="M5198 2879 c-22 -12 -24 -81 -4 -98 17 -14 78 -11 83 4 2 6 -14 10
-34 10 -28 0 -38 5 -41 18 -3 14 4 17 37 17 33 0 41 4 41 18 0 37 -44 54 -82
31z m60 -26 c2 -9 -7 -13 -27 -13 -30 0 -39 9 -24 24 11 10 46 3 51 -11z"/>
<path d="M5300 2886 c0 -20 46 -116 55 -116 7 0 22 25 34 56 24 64 24 64 12
64 -5 0 -17 -19 -26 -42 l-18 -43 -19 43 c-10 23 -23 42 -28 42 -6 0 -10 -2
-10 -4z"/>
<path d="M5440 2830 c0 -33 4 -60 10 -60 6 0 10 27 10 60 0 33 -4 60 -10 60
-6 0 -10 -27 -10 -60z"/>
<path d="M5508 2879 c-22 -12 -24 -81 -4 -98 17 -14 78 -11 83 4 2 6 -14 10
-34 10 -28 0 -38 5 -41 18 -3 14 4 17 37 17 33 0 41 4 41 18 0 37 -44 54 -82
31z m60 -26 c2 -9 -7 -13 -27 -13 -30 0 -39 9 -24 24 11 10 46 3 51 -11z"/>
<path d="M5613 2874 c3 -11 11 -38 17 -62 13 -49 30 -51 44 -4 5 18 12 32 16
32 4 0 11 -14 16 -32 5 -17 14 -33 20 -35 11 -4 48 106 39 115 -9 9 -25 -11
-25 -31 0 -45 -16 -49 -29 -7 -6 22 -16 40 -21 40 -5 0 -15 -19 -22 -42 l-13
-42 -10 39 c-7 21 -17 41 -24 43 -9 3 -11 -2 -8 -14z"/>
<path d="M5960 2880 c0 -5 14 -10 30 -10 40 0 38 -13 -2 -25 -28 -8 -33 -15
-33 -40 0 -29 2 -30 48 -32 l47 -2 0 34 c0 62 -15 85 -55 85 -19 0 -35 -4 -35
-10z m58 -67 c-4 -22 -48 -31 -48 -10 0 19 10 27 32 27 13 0 18 -6 16 -17z"/>
<path d="M6092 2878 c-35 -45 -13 -114 34 -105 16 3 24 0 24 -9 0 -9 -11 -14
-30 -14 -16 0 -30 -4 -30 -10 0 -13 50 -13 70 0 10 6 16 32 18 79 l4 71 -40 0
c-22 0 -44 -6 -50 -12z m66 -39 c3 -29 -20 -54 -43 -45 -15 5 -21 57 -8 70 16
16 48 1 51 -25z"/>
<path d="M6223 2883 c-7 -2 -13 -15 -13 -28 0 -17 8 -26 30 -34 17 -5 30 -15
30 -22 0 -7 -11 -10 -30 -7 -20 3 -30 0 -30 -9 0 -8 12 -13 34 -13 61 0 72 49
15 69 -39 13 -38 35 1 29 20 -3 30 0 30 9 0 13 -41 17 -67 6z"/>
<path d="M1438 2644 c-5 -25 -15 -45 -25 -50 -10 -5 -99 -11 -198 -14 -223 -7
-239 -12 -242 -85 -2 -54 2 -52 11 6 9 51 31 57 231 62 98 2 182 9 199 16 22
9 32 9 43 -1 10 -8 79 -14 212 -18 108 -4 204 -10 214 -14 16 -8 22 -21 30
-76 3 -17 5 -12 6 13 3 85 -28 97 -256 97 -197 0 -211 4 -215 62 l-3 43 -7
-41z"/>
<path d="M2572 2659 c-1 -15 -11 -37 -21 -50 -19 -23 -25 -24 -203 -29 -226
-6 -242 -12 -245 -85 -2 -54 2 -52 11 6 9 51 31 57 231 62 113 2 179 8 197 17
23 11 30 11 44 -1 12 -10 69 -15 214 -19 223 -6 236 -10 243 -79 l4 -36 1 38
c4 86 -27 97 -264 97 -121 0 -175 4 -187 13 -9 6 -18 30 -20 52 -2 23 -4 29
-5 14z"/>
<path d="M3648 2643 c-5 -56 -26 -63 -208 -63 -169 0 -221 -9 -245 -43 -17
-24 -21 -87 -5 -87 6 0 10 18 10 39 0 65 18 71 195 71 97 0 170 5 205 14 41
11 59 12 75 3 12 -7 100 -13 216 -17 220 -6 229 -8 229 -71 0 -22 5 -39 11
-39 19 0 3 81 -21 104 -19 20 -35 21 -228 27 -114 3 -208 7 -209 7 -2 1 -3 22
-3 47 0 54 -18 60 -22 8z"/>
<path d="M5492 2655 c-5 -67 -28 -75 -214 -75 -218 0 -259 -15 -257 -93 1 -46
4 -42 13 14 9 51 31 57 231 62 98 2 182 9 199 16 22 9 32 9 44 -1 11 -9 69
-14 201 -16 102 -2 198 -8 214 -14 26 -10 31 -20 40 -78 3 -17 5 -12 6 13 3
85 -28 97 -256 97 -197 0 -210 4 -216 62 -2 30 -4 34 -5 13z"/>
<path d="M1050 2261 c-74 -39 -113 -139 -113 -291 0 -193 67 -291 198 -291
133 0 205 107 205 307 0 99 -19 180 -53 226 -47 63 -165 88 -237 49z m140 -66
c45 -23 65 -89 65 -215 0 -61 -6 -121 -13 -142 -18 -50 -64 -88 -107 -88 -71
0 -115 82 -115 215 0 110 17 174 55 212 37 37 69 42 115 18z"/>
<path d="M1520 2273 c-60 -23 -109 -95 -110 -161 0 -32 1 -33 37 -30 32 3 38
7 43 33 15 70 59 103 127 92 51 -9 83 -42 83 -87 0 -51 -34 -81 -100 -88 -49
-4 -50 -5 -50 -38 0 -33 1 -34 40 -34 51 0 105 -22 119 -48 6 -12 11 -37 11
-58 0 -29 -7 -43 -36 -70 -29 -28 -43 -34 -80 -34 -76 0 -114 32 -126 105 -3
16 -11 20 -43 20 -38 0 -40 -1 -38 -30 4 -50 12 -72 39 -105 40 -47 77 -61
156 -61 119 0 197 55 211 148 10 60 -7 114 -47 150 -32 30 -34 34 -17 42 29
16 44 65 39 126 -8 94 -67 136 -188 134 -30 0 -62 -3 -70 -6z"/>
<path d="M2210 2259 c-74 -43 -110 -135 -110 -285 0 -195 65 -295 194 -296
138 -1 207 100 207 307 0 154 -33 235 -111 275 -52 27 -133 26 -180 -1z m160
-77 c46 -47 65 -201 39 -322 -29 -136 -165 -150 -211 -22 -20 57 -17 227 5
284 34 88 111 116 167 60z"/>
<path d="M2676 2261 c-58 -30 -94 -90 -95 -158 -1 -32 1 -33 38 -33 37 0 39 1
45 39 9 59 42 92 96 98 87 8 148 -65 116 -141 -17 -40 -33 -54 -131 -111 -128
-75 -158 -114 -179 -232 l-5 -33 205 0 205 0 -3 38 -3 37 -152 3 c-84 1 -153
7 -153 11 0 24 59 75 139 120 145 83 176 124 169 223 -5 62 -23 96 -72 132
-41 31 -167 35 -220 7z"/>
<path d="M3385 2266 c-79 -34 -119 -132 -119 -296 -1 -121 19 -191 68 -241 38
-39 68 -50 133 -50 105 0 167 63 193 199 14 68 9 202 -10 265 -14 47 -65 106
-107 123 -41 18 -119 17 -158 0z m142 -80 c40 -33 55 -92 55 -206 0 -114 -15
-173 -55 -206 -62 -52 -142 -16 -167 77 -18 65 -9 244 14 292 33 67 102 86
153 43z"/>
<path d="M3926 2239 c-19 -42 -43 -57 -108 -66 -34 -5 -38 -9 -38 -34 l0 -29
70 0 70 0 0 -210 0 -210 40 0 40 0 0 295 0 295 -28 0 c-23 0 -31 -7 -46 -41z"/>
<path d="M4540 2259 c-74 -43 -110 -135 -110 -285 0 -195 65 -295 194 -296
138 -1 207 100 207 307 0 154 -33 235 -111 275 -52 27 -133 26 -180 -1z m160
-77 c46 -47 65 -201 39 -322 -29 -136 -165 -150 -211 -22 -20 57 -17 227 5
284 34 88 111 116 167 60z"/>
<path d="M5240 2259 c-74 -43 -110 -135 -110 -285 0 -195 65 -295 194 -296
138 -1 207 100 207 307 0 154 -33 235 -111 275 -52 27 -133 26 -180 -1z m160
-77 c46 -47 65 -201 39 -322 -29 -136 -165 -150 -211 -22 -20 57 -17 227 5
284 34 88 111 116 167 60z"/>
<path d="M5715 2266 c-79 -34 -119 -132 -119 -296 -1 -121 19 -191 68 -241 38
-39 68 -50 133 -50 105 0 167 63 193 199 14 68 9 202 -10 265 -14 47 -65 106
-107 123 -41 18 -119 17 -158 0z m142 -80 c40 -33 55 -92 55 -206 0 -114 -15
-173 -55 -206 -62 -52 -142 -16 -167 77 -18 65 -9 244 14 292 33 67 102 86
153 43z"/>
<path d="M4317 1562 c-12 -18 2 -88 20 -104 10 -8 64 -15 152 -19 75 -4 144
-10 154 -14 12 -5 17 -19 18 -49 l1 -41 10 35 c16 57 26 63 140 67 136 5 165
10 189 34 20 20 29 106 9 94 -5 -3 -10 -24 -10 -46 0 -36 -3 -41 -35 -55 -22
-9 -70 -14 -137 -14 -64 0 -112 -5 -128 -13 -20 -10 -30 -11 -50 0 -16 8 -66
13 -138 13 -151 0 -180 12 -184 78 -2 30 -6 42 -11 34z"/>
<path d="M3888 1193 c17 -45 35 -79 44 -81 11 -2 23 19 43 73 15 42 25 79 21
82 -9 9 -12 4 -39 -67 l-24 -64 -24 64 c-13 35 -30 65 -37 68 -8 2 -2 -25 16
-75z"/>
<path d="M4140 1190 c0 -47 4 -80 10 -80 6 0 10 33 10 80 0 47 -4 80 -10 80
-6 0 -10 -33 -10 -80z"/>
<path d="M4930 1260 c0 -5 5 -10 10 -10 6 0 10 5 10 10 0 6 -4 10 -10 10 -5 0
-10 -4 -10 -10z"/>
<path d="M5240 1190 c0 -47 4 -80 10 -80 6 0 10 33 10 80 0 47 -4 80 -10 80
-6 0 -10 -33 -10 -80z"/>
<path d="M5560 1246 c0 -8 -6 -17 -12 -19 -10 -4 -10 -7 -1 -14 6 -5 13 -29
15 -53 3 -41 6 -45 31 -48 15 -2 27 1 27 7 0 6 -9 11 -20 11 -17 0 -20 7 -20
40 0 33 3 40 20 40 11 0 20 5 20 10 0 6 -9 10 -20 10 -11 0 -20 7 -20 15 0 8
-4 15 -10 15 -5 0 -10 -6 -10 -14z"/>
<path d="M4020 1220 c0 -5 14 -10 30 -10 40 0 38 -13 -2 -25 -28 -8 -33 -15
-33 -40 0 -29 2 -30 48 -32 l47 -2 0 34 c0 62 -15 85 -55 85 -19 0 -35 -4 -35
-10z m58 -67 c-4 -22 -48 -31 -48 -10 0 19 10 27 32 27 13 0 18 -6 16 -17z"/>
<path d="M4202 1173 l3 -58 48 -2 47 -2 0 61 c0 72 -22 77 -30 7 -4 -36 -9
-44 -25 -44 -17 0 -20 8 -23 48 -2 26 -8 47 -13 47 -6 0 -9 -24 -7 -57z"/>
<path d="M4348 1219 c-22 -12 -24 -81 -4 -98 17 -14 78 -11 83 4 2 6 -14 10
-34 10 -28 0 -38 5 -41 18 -3 14 4 17 37 17 33 0 41 4 41 18 0 37 -44 54 -82
31z m60 -26 c2 -9 -7 -13 -27 -13 -30 0 -39 9 -24 24 11 10 46 3 51 -11z"/>
<path d="M4546 1214 c-9 -8 -16 -28 -16 -44 0 -16 7 -36 16 -44 19 -20 84 -22
84 -3 0 9 -10 12 -31 9 -20 -3 -34 0 -40 9 -15 24 -10 29 31 29 32 0 40 4 40
18 0 40 -54 57 -84 26z m62 -21 c2 -9 -7 -13 -27 -13 -30 0 -39 9 -24 24 11
10 46 3 51 -11z"/>
<path d="M4669 1214 c-17 -21 -17 -83 2 -95 7 -5 26 -7 42 -5 23 5 27 2 27
-19 0 -14 5 -25 10 -25 6 0 10 33 10 80 l0 80 -39 0 c-23 0 -44 -6 -52 -16z
m69 -35 c3 -29 -20 -54 -43 -45 -15 5 -21 57 -8 70 16 16 48 1 51 -25z"/>
<path d="M4790 1181 c0 -57 13 -71 63 -69 l37 1 0 59 c0 69 -18 78 -22 11 -2
-37 -7 -49 -22 -51 -24 -5 -36 14 -36 61 0 20 -4 37 -10 37 -5 0 -10 -22 -10
-49z"/>
<path d="M4930 1170 c0 -33 4 -60 10 -60 6 0 10 27 10 60 0 33 -4 60 -10 60
-6 0 -10 -27 -10 -60z"/>
<path d="M4984 1207 c10 -42 36 -97 46 -97 11 0 14 5 39 68 16 40 18 52 7 52
-7 0 -18 -18 -25 -40 -6 -22 -15 -40 -20 -40 -4 0 -14 18 -21 40 -14 42 -36
57 -26 17z"/>
<path d="M5110 1217 c0 -9 9 -12 29 -9 16 2 32 -1 35 -7 4 -7 -1 -11 -12 -11
-33 0 -66 -33 -58 -58 6 -19 14 -22 52 -20 l44 1 0 47 c0 25 -5 51 -12 58 -17
17 -78 16 -78 -1z m70 -62 c0 -19 -24 -29 -46 -21 -13 5 -14 9 -4 21 16 20 50
19 50 0z"/>
<path d="M5308 1219 c-22 -12 -24 -81 -4 -98 17 -14 78 -11 83 4 2 6 -14 10
-34 10 -28 0 -38 5 -41 18 -3 14 4 17 37 17 33 0 41 4 41 18 0 37 -44 54 -82
31z m60 -26 c2 -9 -7 -13 -27 -13 -30 0 -39 9 -24 24 11 10 46 3 51 -11z"/>
<path d="M5420 1168 c0 -32 4 -58 10 -58 6 0 10 20 10 44 0 36 4 46 20 51 31
10 40 -2 40 -51 0 -24 5 -44 10 -44 15 0 12 96 -2 108 -7 6 -30 10 -50 9 l-38
-1 0 -58z"/>
<path d="M4650 940 c0 -47 4 -80 10 -80 6 0 10 33 10 80 0 47 -4 80 -10 80 -6
0 -10 -33 -10 -80z"/>
<path d="M3789 993 c-3 -29 2 -97 7 -115 3 -11 15 -18 30 -18 29 0 32 16 4 23
-15 4 -20 14 -20 41 0 29 4 36 20 36 11 0 20 5 20 10 0 6 -9 10 -20 10 -11 0
-20 7 -20 15 0 21 -20 19 -21 -2z"/>
<path d="M5269 993 c-3 -29 2 -97 7 -115 3 -11 15 -18 30 -18 29 0 32 16 4 23
-15 4 -20 14 -20 41 0 29 4 36 20 36 11 0 20 5 20 10 0 6 -9 10 -20 10 -11 0
-20 7 -20 15 0 21 -20 19 -21 -2z"/>
<path d="M3886 965 c-19 -20 -21 -64 -3 -89 20 -27 69 -18 85 17 27 57 -39
115 -82 72z m59 -45 c0 -29 -4 -36 -23 -38 -26 -4 -37 17 -28 54 5 19 12 25
29 22 18 -2 22 -9 22 -38z"/>
<path d="M4080 898 c0 -45 4 -78 10 -78 6 0 10 9 10 20 0 15 7 20 24 20 34 0
56 25 56 64 0 42 -16 56 -63 54 l-37 -1 0 -79z m76 47 c4 -8 3 -26 0 -40 -5
-18 -13 -25 -31 -25 -22 0 -25 5 -25 33 0 19 3 37 7 40 12 13 44 7 49 -8z"/>
<path d="M4210 918 c0 -32 4 -58 10 -58 6 0 10 18 10 40 0 33 4 42 25 52 35
16 31 26 -10 25 l-35 -1 0 -58z"/>
<path d="M4318 969 c-22 -12 -24 -81 -4 -98 17 -14 78 -11 83 4 2 6 -14 10
-34 10 -28 0 -38 5 -41 18 -3 14 4 17 37 17 33 0 41 4 41 18 0 37 -44 54 -82
31z m60 -26 c2 -9 -7 -13 -27 -13 -30 0 -39 9 -24 24 11 10 46 3 51 -11z"/>
<path d="M4430 918 c0 -32 4 -58 10 -58 6 0 10 20 10 45 0 39 3 45 25 51 37 9
30 22 -10 21 l-35 -1 0 -58z"/>
<path d="M4526 958 c-20 -28 -20 -48 0 -76 12 -18 24 -22 52 -20 49 4 54 26 5
24 -28 -1 -38 3 -41 17 -3 14 4 17 37 17 42 0 48 8 31 41 -15 27 -64 25 -84
-3z m64 -13 c0 -9 -9 -15 -25 -15 -24 0 -32 10 -18 23 12 13 43 7 43 -8z"/>
<path d="M4716 964 c-9 -8 -16 -28 -16 -44 0 -16 7 -36 16 -44 19 -20 84 -22
84 -3 0 9 -10 12 -31 9 -20 -3 -34 0 -40 9 -15 24 -10 29 31 29 32 0 40 4 40
18 0 40 -54 57 -84 26z m62 -21 c2 -9 -7 -13 -27 -13 -30 0 -39 9 -24 24 11
10 46 3 51 -11z"/>
<path d="M4835 970 c-4 -6 6 -10 24 -10 16 0 33 -4 36 -10 3 -5 -3 -10 -13
-10 -11 0 -30 -9 -43 -19 -35 -29 -16 -56 40 -57 l41 -2 0 53 c0 39 -4 54 -16
59 -24 9 -62 7 -69 -4z m63 -67 c-4 -22 -48 -31 -48 -10 0 19 10 27 32 27 13
0 18 -6 16 -17z"/>
<path d="M4960 965 c-17 -21 -3 -47 30 -55 13 -3 26 -12 28 -19 3 -10 -5 -12
-32 -9 -23 2 -35 0 -33 -6 2 -6 17 -12 34 -14 58 -6 70 54 14 68 -31 7 -22 25
12 23 38 -2 29 21 -10 25 -18 2 -35 -3 -43 -13z"/>
<path d="M5076 958 c-20 -28 -20 -48 0 -76 12 -18 24 -22 52 -20 49 4 54 26 5
24 -28 -1 -38 3 -41 17 -3 14 4 17 37 17 42 0 48 8 31 41 -15 27 -64 25 -84
-3z m64 -13 c0 -9 -9 -15 -25 -15 -24 0 -32 10 -18 23 12 13 43 7 43 -8z"/>
<path d="M5360 970 c0 -5 13 -10 28 -10 44 0 47 -13 5 -25 -33 -9 -38 -14 -38
-40 0 -29 2 -30 48 -31 l47 -2 0 47 c0 26 -5 52 -12 59 -14 14 -78 16 -78 2z
m68 -67 c-4 -23 -58 -31 -58 -9 0 15 14 24 43 25 12 1 17 -5 15 -16z"/>
<path d="M5492 968 c-7 -7 -12 -29 -12 -50 0 -42 26 -64 62 -53 15 5 19 3 16
-6 -3 -8 -19 -15 -36 -17 -43 -4 -41 -22 3 -22 44 0 55 20 55 99 l0 61 -38 0
c-21 0 -43 -5 -50 -12z m68 -42 c0 -26 -5 -36 -20 -41 -28 -9 -40 2 -40 34 0
34 6 41 37 41 20 0 23 -5 23 -34z"/>
<path d="M5620 965 c-17 -21 -3 -47 29 -55 30 -7 22 -25 -11 -25 -16 0 -28 -5
-28 -12 0 -19 65 -16 81 3 16 20 2 46 -30 54 -31 7 -22 25 12 23 38 -2 29 21
-10 25 -18 2 -35 -3 -43 -13z"/>
<path d="M3436 726 c-9 -19 -16 -48 -16 -66 0 -39 28 -100 45 -100 9 0 8 10
-6 37 -10 21 -19 49 -19 63 0 14 9 42 19 63 14 27 15 37 6 37 -7 0 -20 -15
-29 -34z"/>
<path d="M3640 680 c0 -47 4 -80 10 -80 6 0 10 33 10 80 0 47 -4 80 -10 80 -6
0 -10 -33 -10 -80z"/>
<path d="M3840 680 c0 -86 17 -111 22 -32 3 40 6 47 26 50 20 3 22 0 22 -47 0
-29 5 -51 10 -51 7 0 10 22 8 58 l-3 57 -32 0 c-28 0 -33 4 -33 22 0 13 -4 23
-10 23 -6 0 -10 -33 -10 -80z"/>
<path d="M4303 745 c-26 -11 -30 -25 -8 -25 11 0 15 -12 15 -50 0 -38 -4 -50
-15 -50 -8 0 -15 -4 -15 -10 0 -5 21 -10 46 -10 27 0 43 4 39 10 -3 6 -12 10
-20 10 -10 0 -15 18 -17 68 -3 65 -4 67 -25 57z"/>
<path d="M4560 680 l0 -80 40 0 c44 0 60 18 60 68 0 36 -22 56 -55 50 -21 -4
-25 -1 -25 18 0 13 -4 24 -10 24 -6 0 -10 -33 -10 -80z m76 5 c4 -8 3 -26 0
-40 -5 -18 -13 -25 -31 -25 -22 0 -25 5 -25 33 0 19 3 37 7 40 12 13 44 7 49
-8z"/>
<path d="M5213 753 c-25 -9 -13 -25 13 -19 15 4 32 2 40 -5 11 -9 11 -15 -1
-40 -9 -16 -27 -36 -40 -45 -43 -28 -32 -44 30 -44 30 0 55 5 55 10 0 6 -18
10 -40 10 l-41 0 36 35 c36 36 45 71 23 93 -12 12 -52 15 -75 5z"/>
<path d="M5877 753 c-15 -15 -5 -22 22 -17 39 8 51 -13 21 -36 l-23 -18 22 -7
c15 -5 21 -13 19 -28 -2 -18 -9 -22 -41 -21 -49 2 -44 -20 5 -24 56 -5 87 38
53 72 -9 9 -11 17 -5 21 16 10 12 52 -6 59 -21 8 -59 8 -67 -1z"/>
<path d="M6020 728 c11 -18 20 -49 20 -68 0 -19 -9 -50 -20 -67 -17 -28 -17
-33 -4 -33 18 0 44 58 44 100 0 42 -26 100 -44 100 -13 0 -13 -5 4 -32z"/>
<path d="M4818 733 c-2 -10 -2 -43 1 -73 6 -51 8 -55 34 -58 15 -2 27 1 27 7
0 6 -9 11 -20 11 -17 0 -20 7 -20 40 0 33 3 40 20 40 11 0 20 5 20 10 0 6 -9
10 -20 10 -11 0 -20 7 -20 15 0 21 -17 19 -22 -2z"/>
<path d="M3520 710 c0 -5 13 -10 28 -10 44 0 47 -13 5 -25 -33 -9 -38 -14 -38
-40 0 -29 2 -30 48 -31 l47 -2 0 47 c0 26 -5 52 -12 59 -14 14 -78 16 -78 2z
m68 -67 c-4 -23 -58 -31 -58 -9 0 15 14 24 43 25 12 1 17 -5 15 -16z"/>
<path d="M3700 639 c0 -46 4 -79 10 -79 6 0 10 9 10 20 0 15 7 20 29 20 36 0
55 22 55 66 0 43 -6 48 -60 50 l-44 2 0 -79z m75 21 c0 -31 -3 -35 -25 -35
-29 0 -40 36 -19 61 21 26 44 12 44 -26z"/>
<path d="M3975 710 c-4 -6 6 -10 24 -10 16 0 33 -4 36 -10 3 -5 -3 -10 -13
-10 -11 0 -30 -9 -43 -19 -35 -29 -16 -56 40 -57 l41 -2 0 53 c0 39 -4 54 -16
59 -24 9 -62 7 -69 -4z m63 -67 c-4 -22 -48 -31 -48 -10 0 19 10 27 32 27 13
0 18 -6 16 -17z"/>
<path d="M4696 698 c-20 -28 -20 -48 0 -76 12 -18 24 -22 52 -20 49 4 54 26 5
24 -28 -1 -38 3 -41 17 -3 14 4 17 37 17 42 0 48 8 31 41 -15 27 -64 25 -84
-3z m64 -13 c0 -9 -9 -15 -25 -15 -24 0 -32 10 -18 23 12 13 43 7 43 -8z"/>
<path d="M4905 710 c-4 -6 6 -10 24 -10 16 0 33 -4 36 -10 3 -5 -3 -10 -13
-10 -11 0 -30 -9 -43 -19 -35 -29 -16 -56 40 -57 l41 -2 0 53 c0 39 -4 54 -16
59 -24 9 -62 7 -69 -4z m63 -67 c-4 -22 -48 -31 -48 -10 0 19 10 27 32 27 13
0 18 -6 16 -17z"/>
<path d="M5490 658 c0 -32 4 -58 10 -58 6 0 10 18 10 40 0 33 4 42 25 52 35
16 31 26 -10 25 l-35 -1 0 -58z"/>
<path d="M5586 698 c-9 -12 -16 -29 -16 -38 0 -33 31 -61 63 -58 41 4 45 23 5
23 -31 0 -33 2 -33 35 0 33 2 35 33 33 42 -1 38 21 -5 25 -23 2 -35 -3 -47
-20z"/>
<path d="M4105 690 c3 -5 33 -10 66 -10 33 0 59 4 59 10 0 6 -29 10 -66 10
-41 0 -63 -4 -59 -10z"/>
<path d="M5035 690 c3 -5 33 -10 66 -10 33 0 59 4 59 10 0 6 -29 10 -66 10
-41 0 -63 -4 -59 -10z"/>
<path d="M5700 690 c0 -6 27 -10 60 -10 33 0 60 4 60 10 0 6 -27 10 -60 10
-33 0 -60 -4 -60 -10z"/>
<path d="M4105 650 c-4 -6 18 -10 59 -10 37 0 66 4 66 10 0 6 -26 10 -59 10
-33 0 -63 -4 -66 -10z"/>
<path d="M5035 650 c-4 -6 18 -10 59 -10 37 0 66 4 66 10 0 6 -26 10 -59 10
-33 0 -63 -4 -66 -10z"/>
<path d="M5700 650 c0 -6 27 -10 60 -10 33 0 60 4 60 10 0 6 -27 10 -60 10
-33 0 -60 -4 -60 -10z"/>
<path d="M4411 599 c-13 -38 -13 -39 -3 -39 5 0 16 16 25 35 14 28 14 35 3 35
-8 0 -19 -14 -25 -31z"/>
<path d="M5346 608 c-14 -56 4 -62 22 -8 9 24 8 30 -2 30 -8 0 -16 -10 -20
-22z"/>
</g>
</svg>
