<?xml version="1.0" standalone="no"?>
<!DOCTYPE svg PUBLIC "-//W3C//DTD SVG 20010904//EN"
 "http://www.w3.org/TR/2001/REC-SVG-20010904/DTD/svg10.dtd">
<svg version="1.0" xmlns="http://www.w3.org/2000/svg"
 width="708.000000pt" height="392.000000pt" viewBox="0 0 708.000000 392.000000"
 preserveAspectRatio="xMidYMid meet">
<metadata>
Created by potrace 1.16, written by Peter Selinger 2001-2019
</metadata>
<g transform="translate(0.000000,392.000000) scale(0.100000,-0.100000)"
fill="#000000" stroke="none">
<path d="M30 1970 l0 -1930 3510 0 3510 0 0 1930 0 1930 -3510 0 -3510 0 0
-1930z m7000 0 l0 -1910 -3490 0 -3490 0 0 1910 0 1910 3490 0 3490 0 0 -1910z"/>
<path d="M1438 2644 c-5 -25 -15 -45 -25 -50 -10 -5 -99 -11 -198 -14 -223 -7
-239 -12 -242 -85 -2 -54 2 -52 11 6 9 51 31 57 231 62 98 2 182 9 199 16 22
9 32 9 43 -1 10 -8 79 -14 212 -18 108 -4 204 -10 214 -14 16 -8 22 -21 30
-76 3 -17 5 -12 6 13 3 85 -28 97 -256 97 -197 0 -211 4 -215 62 l-3 43 -7
-41z"/>
<path d="M2572 2659 c-1 -15 -11 -37 -21 -50 -19 -23 -25 -24 -203 -29 -226
-6 -242 -12 -245 -85 -2 -54 2 -52 11 6 9 51 31 57 231 62 113 2 179 8 197 17
23 11 30 11 44 -1 12 -10 69 -15 214 -19 223 -6 236 -10 243 -79 l4 -36 1 38
c4 86 -27 97 -264 97 -121 0 -175 4 -187 13 -9 6 -18 30 -20 52 -2 23 -4 29
-5 14z"/>
<path d="M3648 2643 c-5 -56 -26 -63 -208 -63 -169 0 -221 -9 -245 -43 -17
-24 -21 -87 -5 -87 6 0 10 18 10 39 0 65 18 71 195 71 97 0 170 5 205 14 41
11 59 12 75 3 12 -7 100 -13 216 -17 220 -6 229 -8 229 -71 0 -22 5 -39 11
-39 19 0 3 81 -21 104 -19 20 -35 21 -228 27 -114 3 -208 7 -209 7 -2 1 -3 22
-3 47 0 54 -18 60 -22 8z"/>
<path d="M5492 2655 c-5 -67 -28 -75 -214 -75 -218 0 -259 -15 -257 -93 1 -46
4 -42 13 14 9 51 31 57 231 62 98 2 182 9 199 16 22 9 32 9 44 -1 11 -9 69
-14 201 -16 102 -2 198 -8 214 -14 26 -10 31 -20 40 -78 3 -17 5 -12 6 13 3
85 -28 97 -256 97 -197 0 -210 4 -216 62 -2 30 -4 34 -5 13z"/>
<path d="M1050 2261 c-74 -39 -113 -139 -113 -291 0 -193 67 -291 198 -291
133 0 205 107 205 307 0 99 -19 180 -53 226 -47 63 -165 88 -237 49z m140 -66
c45 -23 65 -89 65 -215 0 -61 -6 -121 -13 -142 -18 -50 -64 -88 -107 -88 -71
0 -115 82 -115 215 0 110 17 174 55 212 37 37 69 42 115 18z"/>
<path d="M1520 2273 c-60 -23 -109 -95 -110 -161 0 -32 1 -33 37 -30 32 3 38
7 43 33 15 70 59 103 127 92 51 -9 83 -42 83 -87 0 -51 -34 -81 -100 -88 -49
-4 -50 -5 -50 -38 0 -33 1 -34 40 -34 51 0 105 -22 119 -48 6 -12 11 -37 11
-58 0 -29 -7 -43 -36 -70 -29 -28 -43 -34 -80 -34 -76 0 -114 32 -126 105 -3
16 -11 20 -43 20 -38 0 -40 -1 -38 -30 4 -50 12 -72 39 -105 40 -47 77 -61
156 -61 119 0 197 55 211 148 10 60 -7 114 -47 150 -32 30 -34 34 -17 42 29
16 44 65 39 126 -8 94 -67 136 -188 134 -30 0 -62 -3 -70 -6z"/>
<path d="M2210 2259 c-74 -43 -110 -135 -110 -285 0 -195 65 -295 194 -296
138 -1 207 100 207 307 0 154 -33 235 -111 275 -52 27 -133 26 -180 -1z m160
-77 c46 -47 65 -201 39 -322 -29 -136 -165 -150 -211 -22 -20 57 -17 227 5
284 34 88 111 116 167 60z"/>
<path d="M2676 2261 c-58 -30 -94 -90 -95 -158 -1 -32 1 -33 38 -33 37 0 39 1
45 39 9 59 42 92 96 98 87 8 148 -65 116 -141 -17 -40 -33 -54 -131 -111 -128
-75 -158 -114 -179 -232 l-5 -33 205 0 205 0 -3 38 -3 37 -152 3 c-84 1 -153
7 -153 11 0 24 59 75 139 120 145 83 176 124 169 223 -5 62 -23 96 -72 132
-41 31 -167 35 -220 7z"/>
<path d="M3385 2266 c-79 -34 -119 -132 -119 -296 -1 -121 19 -191 68 -241 38
-39 68 -50 133 -50 105 0 167 63 193 199 14 68 9 202 -10 265 -14 47 -65 106
-107 123 -41 18 -119 17 -158 0z m142 -80 c40 -33 55 -92 55 -206 0 -114 -15
-173 -55 -206 -62 -52 -142 -16 -167 77 -18 65 -9 244 14 292 33 67 102 86
153 43z"/>
<path d="M3926 2239 c-19 -42 -43 -57 -108 -66 -34 -5 -38 -9 -38 -34 l0 -29
70 0 70 0 0 -210 0 -210 40 0 40 0 0 295 0 295 -28 0 c-23 0 -31 -7 -46 -41z"/>
<path d="M4540 2259 c-74 -43 -110 -135 -110 -285 0 -195 65 -295 194 -296
138 -1 207 100 207 307 0 154 -33 235 -111 275 -52 27 -133 26 -180 -1z m160
-77 c46 -47 65 -201 39 -322 -29 -136 -165 -150 -211 -22 -20 57 -17 227 5
284 34 88 111 116 167 60z"/>
<path d="M5240 2259 c-74 -43 -110 -135 -110 -285 0 -195 65 -295 194 -296
138 -1 207 100 207 307 0 154 -33 235 -111 275 -52 27 -133 26 -180 -1z m160
-77 c46 -47 65 -201 39 -322 -29 -136 -165 -150 -211 -22 -20 57 -17 227 5
284 34 88 111 116 167 60z"/>
<path d="M5715 2266 c-79 -34 -119 -132 -119 -296 -1 -121 19 -191 68 -241 38
-39 68 -50 133 -50 105 0 167 63 193 199 14 68 9 202 -10 265 -14 47 -65 106
-107 123 -41 18 -119 17 -158 0z m142 -80 c40 -33 55 -92 55 -206 0 -114 -15
-173 -55 -206 -62 -52 -142 -16 -167 77 -18 65 -9 244 14 292 33 67 102 86
153 43z"/>
</g>
</svg>
